<?xml version="1.0" encoding="utf-8"?>
<!-- Generator: Adobe Illustrator 24.3.0, SVG Export Plug-In . SVG Version: 6.00 Build 0)  -->
<svg version="1.1" xmlns="http://www.w3.org/2000/svg" xmlns:xlink="http://www.w3.org/1999/xlink" x="0px" y="0px" width="820px"
	 height="496.723px" viewBox="0 0 820 496.723" style="enable-background:new 0 0 820 496.723;" xml:space="preserve">
<style type="text/css">
	.st0{fill:url(#SVGID_1_);}
	.st1{fill:#333333;}
	.st2{fill:#AFAFAF;}
	.st3{fill:#FFFFFF;}
	.st4{fill:url(#SVGID_2_);}
	.st5{fill:url(#SVGID_3_);}
	.st6{fill:url(#SVGID_4_);}
	.st7{fill:url(#SVGID_5_);}
</style>
<g id="main_art">
	<linearGradient id="SVGID_1_" gradientUnits="userSpaceOnUse" x1="84.6758" y1="267.1804" x2="737.2302" y2="244.1635">
		<stop  offset="0" style="stop-color:#00B4E5"/>
		<stop  offset="1" style="stop-color:#1CD0BB"/>
	</linearGradient>
	<path class="st0" d="M732.267,385.227H88.84c0,0,0-190.97,0-146.301c185.814,0,504.415-64.766,643.427-126.403
		C732.267,44.094,732.267,385.227,732.267,385.227z"/>
	<rect x="439.181" y="271.286" class="st1" width="103.299" height="24.856"/>
	<rect x="279.35" y="300.262" class="st1" width="103.299" height="24.856"/>
	<rect x="116.669" y="317.903" class="st1" width="103.299" height="24.856"/>
	<rect x="600.091" y="234.022" class="st1" width="103.299" height="24.856"/>
	<g>
		<g>
			<rect x="101.563" y="62.127" class="st1" width="133.874" height="4.103"/>
			<g>
				<polygon class="st1" points="103.358,70.315 92.731,64.179 103.358,58.042 				"/>
			</g>
			<g>
				<polygon class="st1" points="233.642,70.315 244.268,64.179 233.642,58.042 				"/>
			</g>
		</g>
	</g>
	<g>
		<g>
			<rect x="263.178" y="62.127" class="st1" width="133.874" height="4.103"/>
			<g>
				<polygon class="st1" points="264.973,70.315 254.346,64.179 264.973,58.042 				"/>
			</g>
			<g>
				<polygon class="st1" points="395.256,70.315 405.883,64.179 395.256,58.042 				"/>
			</g>
		</g>
	</g>
	<g>
		<g>
			<rect x="423.793" y="62.127" class="st1" width="133.874" height="4.103"/>
			<g>
				<polygon class="st1" points="425.588,70.315 414.961,64.179 425.588,58.042 				"/>
			</g>
			<g>
				<polygon class="st1" points="555.871,70.315 566.498,64.179 555.871,58.042 				"/>
			</g>
		</g>
	</g>
	<g>
		<g>
			<rect x="584.407" y="62.127" class="st1" width="133.875" height="4.103"/>
			<g>
				<polygon class="st1" points="586.203,70.315 575.576,64.179 586.203,58.042 				"/>
			</g>
			<g>
				<polygon class="st1" points="716.486,70.315 727.113,64.179 716.486,58.042 				"/>
			</g>
		</g>
	</g>
	<rect x="65.249" y="91.298" class="st2" width="20.414" height="294.298"/>
	<rect x="88.372" y="388.318" class="st2" width="643.42" height="19.017"/>
	<g>
		<path class="st1" d="M197.93,17.047h3.96l3.48,11.377l3.769-11.425h3.168l3.769,11.425l3.48-11.377h3.864l-5.736,16.921h-3.217
			l-3.792-10.993l-3.792,10.993h-3.216L197.93,17.047z"/>
		<path class="st1" d="M226.034,17.047h3.696v6.648h6.816v-6.648h3.696v16.801h-3.696v-6.745h-6.816v6.745h-3.696V17.047z"/>
		<path class="st1" d="M248.882,27.224l-6.456-10.177h4.32l4.009,6.745l4.08-6.745h4.2l-6.457,10.104v6.697h-3.696V27.224z"/>
		<path class="st1" d="M268.297,17.047h6.864c4.008,0,6.433,2.376,6.433,5.808v0.048c0,3.888-3.024,5.904-6.793,5.904h-2.808v5.041
			h-3.696V17.047z M274.921,25.52c1.849,0,2.929-1.104,2.929-2.544v-0.048c0-1.656-1.152-2.544-3.001-2.544h-2.855v5.137H274.921z"
			/>
		<path class="st1" d="M284.21,17.047h7.681c2.136,0,3.792,0.6,4.896,1.704c0.937,0.936,1.44,2.256,1.44,3.84v0.048
			c0,2.712-1.464,4.417-3.601,5.208l4.104,6h-4.32l-3.6-5.376h-2.904v5.376h-3.696V17.047z M291.65,25.208
			c1.8,0,2.832-0.96,2.832-2.376v-0.048c0-1.584-1.104-2.4-2.904-2.4h-3.672v4.825H291.65z"/>
		<path class="st1" d="M301.441,17.047h12.673v3.288h-9.001v3.408h7.921v3.289h-7.921v3.528h9.121v3.288h-12.793V17.047z"/>
		<path class="st1" d="M317.401,17.047h6.552c5.281,0,8.929,3.624,8.929,8.353v0.048c0,4.729-3.647,8.401-8.929,8.401h-6.552V17.047
			z M321.098,20.383v10.129h2.855c3.024,0,5.064-2.04,5.064-5.016v-0.048c0-2.976-2.04-5.064-5.064-5.064H321.098z"/>
		<path class="st1" d="M336.217,17.047h3.696v16.801h-3.696V17.047z"/>
		<path class="st1" d="M343.248,25.496v-0.048c0-4.776,3.6-8.688,8.761-8.688c3.168,0,5.064,1.056,6.624,2.592l-2.352,2.712
			c-1.297-1.176-2.616-1.896-4.297-1.896c-2.832,0-4.872,2.352-4.872,5.232v0.048c0,2.88,1.992,5.281,4.872,5.281
			c1.92,0,3.097-0.768,4.416-1.968l2.353,2.376c-1.729,1.848-3.648,3-6.889,3C346.92,34.136,343.248,30.32,343.248,25.496z"/>
		<path class="st1" d="M365.496,20.455h-5.112v-3.408h13.921v3.408h-5.112v13.393h-3.696V20.455z"/>
		<path class="st1" d="M377.184,17.047h3.696v16.801h-3.696V17.047z"/>
		<path class="st1" d="M383.52,17.047h4.08l4.393,11.833l4.393-11.833h3.984l-6.793,16.921h-3.265L383.52,17.047z"/>
		<path class="st1" d="M402.841,17.047h12.673v3.288h-9.001v3.408h7.921v3.289h-7.921v3.528h9.121v3.288h-12.793V17.047z"/>
		<path class="st1" d="M425.88,17.047h3.984l4.416,7.104l4.416-7.104h3.984v16.801h-3.672V22.879l-4.729,7.176h-0.096l-4.681-7.104
			v10.897h-3.624V17.047z"/>
		<path class="st1" d="M452.352,16.927h3.408l7.201,16.921h-3.864l-1.536-3.769h-7.104l-1.536,3.769h-3.769L452.352,16.927z
			 M456.24,26.815l-2.232-5.448l-2.232,5.448H456.24z"/>
		<path class="st1" d="M465.6,17.047h3.696v16.801H465.6V17.047z"/>
		<path class="st1" d="M473.375,17.047h3.408l7.872,10.345V17.047h3.648v16.801h-3.145l-8.137-10.681v10.681h-3.647V17.047z"/>
		<path class="st1" d="M496.127,20.455h-5.112v-3.408h13.921v3.408h-5.112v13.393h-3.696V20.455z"/>
		<path class="st1" d="M507.646,17.047h12.673v3.288h-9.001v3.408h7.921v3.289h-7.921v3.528h9.121v3.288h-12.793V17.047z"/>
		<path class="st1" d="M523.607,17.047h3.408l7.872,10.345V17.047h3.648v16.801h-3.145l-8.137-10.681v10.681h-3.647V17.047z"/>
		<path class="st1" d="M548.207,16.927h3.408l7.201,16.921h-3.864l-1.536-3.769h-7.104l-1.536,3.769h-3.769L548.207,16.927z
			 M552.096,26.815l-2.232-5.448l-2.232,5.448H552.096z"/>
		<path class="st1" d="M561.287,17.047h3.408l7.872,10.345V17.047h3.648v16.801h-3.145l-8.137-10.681v10.681h-3.647V17.047z"/>
		<path class="st1" d="M579.383,25.496v-0.048c0-4.776,3.6-8.688,8.761-8.688c3.168,0,5.064,1.056,6.624,2.592l-2.352,2.712
			c-1.297-1.176-2.616-1.896-4.297-1.896c-2.832,0-4.872,2.352-4.872,5.232v0.048c0,2.88,1.992,5.281,4.872,5.281
			c1.92,0,3.097-0.768,4.416-1.968l2.353,2.376c-1.729,1.848-3.648,3-6.889,3C583.055,34.136,579.383,30.32,579.383,25.496z"/>
		<path class="st1" d="M597.719,17.047h12.673v3.288h-9.001v3.408h7.921v3.289h-7.921v3.528h9.121v3.288h-12.793V17.047z"/>
		<path class="st1" d="M615.839,24.247l0.119-0.12c3.024-0.12,4.201-0.912,4.201-2.184v-0.048c0-1.08-0.816-1.704-2.209-1.704
			c-1.344,0-2.496,0.552-3.6,1.656l-2.208-2.424c1.392-1.536,3.264-2.592,5.88-2.592c3.456,0,5.809,1.776,5.809,4.969v0.048
			c0,3.048-2.112,4.296-4.729,4.824l-0.264,1.464h-2.448L615.839,24.247z M615.599,30.008h3.888v3.84h-3.888V30.008z"/>
	</g>
	<g>
		<path class="st3" d="M132.5,325.273h4.482c1.247,0,2.213,0.35,2.857,0.995c0.546,0.546,0.84,1.316,0.84,2.241v0.028
			c0,1.583-0.854,2.577-2.101,3.04l2.396,3.502h-2.521l-2.101-3.138h-1.695v3.138H132.5V325.273z M136.843,330.036
			c1.05,0,1.653-0.56,1.653-1.387v-0.028c0-0.924-0.645-1.401-1.695-1.401h-2.143v2.815H136.843z"/>
		<path class="st3" d="M142.553,325.273h7.396v1.919h-5.253v1.989h4.623v1.919h-4.623v2.059h5.323v1.919h-7.466V325.273z"/>
		<path class="st3" d="M155.224,325.203h1.989l4.203,9.875h-2.255l-0.896-2.199h-4.146l-0.896,2.199h-2.199L155.224,325.203z
			 M157.493,330.975l-1.303-3.18l-1.303,3.18H157.493z"/>
		<path class="st3" d="M162.418,330.204v-0.028c0-2.787,2.102-5.071,5.113-5.071c1.849,0,2.956,0.617,3.866,1.513l-1.373,1.583
			c-0.756-0.686-1.527-1.106-2.507-1.106c-1.653,0-2.844,1.373-2.844,3.054v0.028c0,1.681,1.163,3.082,2.844,3.082
			c1.121,0,1.807-0.448,2.577-1.149l1.373,1.387c-1.009,1.079-2.129,1.751-4.021,1.751
			C164.562,335.247,162.418,333.02,162.418,330.204z"/>
		<path class="st3" d="M175.398,327.262h-2.984v-1.989h8.125v1.989h-2.983v7.816h-2.157V327.262z"/>
		<path class="st3" d="M182.214,325.273h2.157v9.805h-2.157V325.273z"/>
		<path class="st3" d="M185.91,325.273h2.382l2.563,6.906l2.563-6.906h2.325l-3.965,9.875h-1.904L185.91,325.273z"/>
		<path class="st3" d="M197.18,325.273h7.396v1.919h-5.253v1.989h4.623v1.919h-4.623v2.059h5.323v1.919h-7.466V325.273z"/>
	</g>
	<g>
		<path class="st3" d="M296.658,307.403h4.006c2.339,0,3.754,1.387,3.754,3.39v0.028c0,2.27-1.765,3.446-3.964,3.446h-1.639v2.941
			h-2.157V307.403z M300.524,312.348c1.079,0,1.709-0.644,1.709-1.484v-0.028c0-0.966-0.672-1.485-1.751-1.485h-1.667v2.998H300.524
			z"/>
		<path class="st3" d="M305.94,307.403h2.157v7.844h4.889v1.961h-7.046V307.403z"/>
		<path class="st3" d="M317.898,307.333h1.989l4.203,9.875h-2.255l-0.896-2.199h-4.146l-0.896,2.199h-2.199L317.898,307.333z
			 M320.167,313.104l-1.303-3.18l-1.303,3.18H320.167z"/>
		<path class="st3" d="M325.526,307.403h1.989l4.595,6.037v-6.037h2.129v9.805h-1.835l-4.749-6.233v6.233h-2.129V307.403z"/>
		<path class="st3" d="M336.517,307.403h1.989l4.595,6.037v-6.037h2.129v9.805h-1.835l-4.749-6.233v6.233h-2.129V307.403z"/>
		<path class="st3" d="M347.505,307.403h7.396v1.919h-5.253v1.989h4.622v1.919h-4.622v2.059h5.323v1.919h-7.467V307.403z"/>
		<path class="st3" d="M356.816,307.403h3.824c3.081,0,5.211,2.115,5.211,4.875v0.028c0,2.76-2.13,4.903-5.211,4.903h-3.824V307.403
			z M358.973,309.35v5.911h1.667c1.765,0,2.955-1.19,2.955-2.927v-0.028c0-1.737-1.19-2.956-2.955-2.956H358.973z"/>
	</g>
	<g>
		<path class="st3" d="M449.111,278.865h4.006c2.339,0,3.754,1.387,3.754,3.39v0.028c0,2.27-1.765,3.446-3.964,3.446h-1.639v2.941
			h-2.157V278.865z M452.977,283.81c1.079,0,1.709-0.644,1.709-1.484v-0.028c0-0.966-0.672-1.485-1.751-1.485h-1.666v2.998H452.977z
			"/>
		<path class="st3" d="M458.394,278.865h4.482c1.246,0,2.213,0.35,2.857,0.995c0.546,0.546,0.84,1.316,0.84,2.241v0.028
			c0,1.583-0.854,2.577-2.101,3.04l2.396,3.502h-2.521l-2.102-3.138h-1.694v3.138h-2.157V278.865z M462.735,283.627
			c1.051,0,1.653-0.56,1.653-1.387v-0.028c0-0.924-0.645-1.401-1.695-1.401h-2.143v2.815H462.735z"/>
		<path class="st3" d="M468.011,283.796v-0.028c0-2.787,2.199-5.071,5.225-5.071s5.197,2.255,5.197,5.043v0.028
			c0,2.788-2.199,5.071-5.226,5.071C470.182,288.838,468.011,286.583,468.011,283.796z M476.177,283.796v-0.028
			c0-1.681-1.232-3.082-2.97-3.082c-1.736,0-2.941,1.373-2.941,3.054v0.028c0,1.681,1.233,3.082,2.97,3.082
			C474.973,286.85,476.177,285.477,476.177,283.796z"/>
		<path class="st3" d="M483.637,278.795h1.989l4.202,9.875h-2.255l-0.896-2.199h-4.146l-0.896,2.199h-2.199L483.637,278.795z
			 M485.906,284.566l-1.303-3.18l-1.303,3.18H485.906z"/>
		<path class="st3" d="M490.831,283.796v-0.028c0-2.787,2.102-5.071,5.112-5.071c1.85,0,2.956,0.617,3.866,1.513l-1.372,1.583
			c-0.757-0.686-1.527-1.106-2.508-1.106c-1.652,0-2.844,1.373-2.844,3.054v0.028c0,1.681,1.163,3.082,2.844,3.082
			c1.121,0,1.807-0.448,2.577-1.149l1.373,1.387c-1.009,1.079-2.129,1.751-4.021,1.751
			C492.975,288.838,490.831,286.611,490.831,283.796z"/>
		<path class="st3" d="M503.811,280.854h-2.984v-1.989h8.125v1.989h-2.983v7.816h-2.157V280.854z"/>
		<path class="st3" d="M510.627,278.865h2.157v9.805h-2.157V278.865z"/>
		<path class="st3" d="M514.322,278.865h2.382l2.563,6.906l2.562-6.906h2.326l-3.965,9.875h-1.904L514.322,278.865z"/>
		<path class="st3" d="M525.594,278.865h7.396v1.919h-5.253v1.989h4.623v1.919h-4.623v2.059h5.323v1.919h-7.466V278.865z"/>
	</g>
	<g>
		<path class="st1" d="M587.897,267.248h0.813l3.51,7.756h-0.935l-0.902-2.035h-4.191l-0.913,2.035h-0.892L587.897,267.248z
			 M590.043,272.177l-1.75-3.917l-1.76,3.917H590.043z"/>
		<path class="st1" d="M593.683,267.303h2.674c2.42,0,4.092,1.661,4.092,3.829v0.022c0,2.167-1.672,3.851-4.092,3.851h-2.674
			V267.303z M594.552,268.106v6.095h1.805c1.947,0,3.19-1.32,3.19-3.025v-0.022c0-1.705-1.243-3.047-3.19-3.047H594.552z"/>
		<path class="st1" d="M601.57,267.303h0.968l2.739,6.634l2.751-6.634h0.935l-3.312,7.756h-0.77L601.57,267.303z"/>
		<path class="st1" d="M613.274,267.248h0.813l3.51,7.756h-0.935l-0.902-2.035h-4.191l-0.913,2.035h-0.892L613.274,267.248z
			 M615.42,272.177l-1.75-3.917l-1.76,3.917H615.42z"/>
		<path class="st1" d="M619.06,267.303h0.814l4.852,6.172v-6.172h0.847v7.701h-0.692l-4.974-6.315v6.315h-0.847V267.303z"/>
		<path class="st1" d="M627.354,271.176v-0.022c0-2.178,1.629-3.982,3.895-3.982c1.397,0,2.233,0.495,3.004,1.221l-0.594,0.638
			c-0.649-0.616-1.376-1.056-2.421-1.056c-1.705,0-2.981,1.386-2.981,3.157v0.022c0,1.782,1.287,3.18,2.981,3.18
			c1.057,0,1.749-0.407,2.486-1.111l0.572,0.561c-0.803,0.814-1.684,1.353-3.08,1.353
			C628.993,275.136,627.354,273.387,627.354,271.176z"/>
		<path class="st1" d="M635.758,267.303h5.566v0.792h-4.697v2.629h4.202v0.792h-4.202v2.695h4.752v0.792h-5.621V267.303z"/>
		<path class="st1" d="M643.073,267.303h2.673c2.421,0,4.093,1.661,4.093,3.829v0.022c0,2.167-1.672,3.851-4.093,3.851h-2.673
			V267.303z M643.942,268.106v6.095h1.804c1.947,0,3.19-1.32,3.19-3.025v-0.022c0-1.705-1.243-3.047-3.19-3.047H643.942z"/>
		<path class="st1" d="M657.714,267.248h0.813l3.51,7.756h-0.935l-0.902-2.035h-4.191l-0.913,2.035h-0.892L657.714,267.248z
			 M659.859,272.177l-1.75-3.917l-1.76,3.917H659.859z"/>
		<path class="st1" d="M663.5,267.303h0.813l4.852,6.172v-6.172h0.848v7.701h-0.693l-4.973-6.315v6.315H663.5V267.303z"/>
		<path class="st1" d="M674.982,267.248h0.814l3.509,7.756h-0.935l-0.902-2.035h-4.191l-0.913,2.035h-0.892L674.982,267.248z
			 M677.128,272.177l-1.749-3.917l-1.761,3.917H677.128z"/>
		<path class="st1" d="M680.768,267.303h0.869v6.898h4.335v0.803h-5.204V267.303z"/>
		<path class="st1" d="M689.931,271.957l-3.201-4.654h1.057l2.596,3.851l2.619-3.851h1.012l-3.201,4.643v3.059h-0.881V271.957z"/>
		<path class="st1" d="M697.378,268.106h-2.585v-0.803h6.051v0.803h-2.585v6.898h-0.881V268.106z"/>
		<path class="st1" d="M702.492,267.303h0.869v7.701h-0.869V267.303z"/>
		<path class="st1" d="M705.221,271.176v-0.022c0-2.178,1.628-3.982,3.895-3.982c1.397,0,2.233,0.495,3.004,1.221l-0.595,0.638
			c-0.648-0.616-1.375-1.056-2.42-1.056c-1.705,0-2.981,1.386-2.981,3.157v0.022c0,1.782,1.287,3.18,2.981,3.18
			c1.056,0,1.749-0.407,2.486-1.111l0.572,0.561c-0.804,0.814-1.684,1.353-3.081,1.353
			C706.86,275.136,705.221,273.387,705.221,271.176z"/>
		<path class="st1" d="M713.119,273.882l0.539-0.638c0.803,0.726,1.573,1.089,2.641,1.089c1.034,0,1.716-0.55,1.716-1.31v-0.022
			c0-0.715-0.385-1.122-2.002-1.463c-1.771-0.385-2.585-0.958-2.585-2.223v-0.022c0-1.21,1.066-2.101,2.53-2.101
			c1.122,0,1.925,0.319,2.706,0.946l-0.506,0.671c-0.716-0.583-1.431-0.836-2.223-0.836c-1.001,0-1.639,0.55-1.639,1.243v0.022
			c0,0.726,0.396,1.133,2.09,1.496c1.716,0.374,2.509,1.001,2.509,2.178v0.022c0,1.32-1.101,2.178-2.63,2.178
			C715.045,275.114,714.043,274.708,713.119,273.882z"/>
		<path class="st1" d="M588.139,280.448h0.814l3.51,7.756h-0.936l-0.902-2.035h-4.191l-0.913,2.035h-0.891L588.139,280.448z
			 M590.284,285.377l-1.749-3.917l-1.761,3.917H590.284z"/>
		<path class="st1" d="M593.925,280.503h0.813l4.852,6.172v-6.172h0.848v7.701h-0.693l-4.973-6.315v6.315h-0.847V280.503z"/>
		<path class="st1" d="M602.56,280.503h2.674c2.42,0,4.092,1.661,4.092,3.829v0.022c0,2.167-1.672,3.851-4.092,3.851h-2.674V280.503
			z M603.429,281.307v6.095h1.805c1.947,0,3.19-1.32,3.19-3.025v-0.022c0-1.705-1.243-3.047-3.19-3.047H603.429z"/>
		<path class="st1" d="M613.845,287.083l0.539-0.638c0.804,0.726,1.573,1.089,2.641,1.089c1.034,0,1.717-0.55,1.717-1.31v-0.022
			c0-0.715-0.386-1.122-2.003-1.463c-1.771-0.385-2.585-0.958-2.585-2.223v-0.022c0-1.21,1.067-2.101,2.53-2.101
			c1.122,0,1.925,0.319,2.706,0.946l-0.506,0.671c-0.715-0.583-1.431-0.836-2.223-0.836c-1.001,0-1.639,0.55-1.639,1.243v0.022
			c0,0.726,0.396,1.133,2.09,1.496c1.717,0.374,2.509,1.001,2.509,2.178v0.022c0,1.32-1.101,2.178-2.63,2.178
			C615.771,288.314,614.77,287.908,613.845,287.083z"/>
		<path class="st1" d="M621.337,280.503h5.566v0.792h-4.697v2.629h4.202v0.792h-4.202v2.695h4.752v0.792h-5.621V280.503z"/>
		<path class="st1" d="M628.651,280.503h0.814l4.852,6.172v-6.172h0.847v7.701h-0.692l-4.974-6.315v6.315h-0.847V280.503z"/>
		<path class="st1" d="M636.78,287.083l0.539-0.638c0.804,0.726,1.573,1.089,2.641,1.089c1.034,0,1.717-0.55,1.717-1.31v-0.022
			c0-0.715-0.386-1.122-2.003-1.463c-1.771-0.385-2.585-0.958-2.585-2.223v-0.022c0-1.21,1.067-2.101,2.53-2.101
			c1.122,0,1.925,0.319,2.706,0.946l-0.506,0.671c-0.715-0.583-1.431-0.836-2.223-0.836c-1.001,0-1.639,0.55-1.639,1.243v0.022
			c0,0.726,0.396,1.133,2.09,1.496c1.717,0.374,2.509,1.001,2.509,2.178v0.022c0,1.32-1.101,2.178-2.63,2.178
			C638.706,288.314,637.705,287.908,636.78,287.083z"/>
		<path class="st1" d="M644.349,280.503h0.869v7.701h-0.869V280.503z"/>
		<path class="st1" d="M647.417,280.503h0.814l4.852,6.172v-6.172h0.847v7.701h-0.692l-4.974-6.315v6.315h-0.847V280.503z"/>
		<path class="st1" d="M655.711,284.376v-0.022c0-2.112,1.552-3.982,3.862-3.982c1.298,0,2.101,0.374,2.871,1.023l-0.562,0.66
			c-0.594-0.517-1.254-0.88-2.343-0.88c-1.705,0-2.927,1.441-2.927,3.157v0.022c0,1.837,1.178,3.202,3.048,3.202
			c0.88,0,1.694-0.341,2.222-0.771v-1.914h-2.343v-0.781h3.18v3.07c-0.716,0.638-1.794,1.177-3.092,1.177
			C657.207,288.336,655.711,286.576,655.711,284.376z"/>
		<path class="st1" d="M667.865,280.503h2.674c2.42,0,4.093,1.661,4.093,3.829v0.022c0,2.167-1.673,3.851-4.093,3.851h-2.674
			V280.503z M668.734,281.307v6.095h1.805c1.947,0,3.19-1.32,3.19-3.025v-0.022c0-1.705-1.243-3.047-3.19-3.047H668.734z"/>
		<path class="st1" d="M679.262,280.448h0.814l3.509,7.756h-0.935l-0.902-2.035h-4.191l-0.913,2.035h-0.892L679.262,280.448z
			 M681.407,285.377l-1.749-3.917l-1.761,3.917H681.407z"/>
		<path class="st1" d="M687.082,281.307h-2.585v-0.803h6.051v0.803h-2.585v6.898h-0.881V281.307z"/>
		<path class="st1" d="M694.969,280.448h0.814l3.509,7.756h-0.935l-0.902-2.035h-4.191l-0.913,2.035h-0.892L694.969,280.448z
			 M697.114,285.377l-1.749-3.917l-1.761,3.917H697.114z"/>
		<path class="st1" d="M706.034,281.307h-2.585v-0.803h6.051v0.803h-2.585v6.898h-0.881V281.307z"/>
		<path class="st1" d="M710.73,284.376v-0.022c0-2.123,1.596-3.982,3.938-3.982c2.344,0,3.917,1.837,3.917,3.96v0.022
			c0,2.124-1.596,3.982-3.938,3.982C712.304,288.336,710.73,286.5,710.73,284.376z M717.684,284.376v-0.022
			c0-1.749-1.276-3.179-3.036-3.179c-1.761,0-3.015,1.408-3.015,3.157v0.022c0,1.75,1.276,3.18,3.036,3.18
			C716.43,287.534,717.684,286.125,717.684,284.376z"/>
		<path class="st1" d="M599.744,293.703h2.882c1.738,0,2.883,0.924,2.883,2.442v0.022c0,1.661-1.387,2.52-3.025,2.52h-1.87v2.717
			h-0.869V293.703z M602.516,297.895c1.276,0,2.112-0.682,2.112-1.694v-0.022c0-1.1-0.824-1.672-2.067-1.672h-1.947v3.389H602.516z"
			/>
		<path class="st1" d="M607.037,293.703h3.311c0.946,0,1.706,0.286,2.189,0.77c0.374,0.374,0.595,0.913,0.595,1.519v0.022
			c0,1.276-0.881,2.024-2.091,2.244l2.365,3.146h-1.066l-2.233-2.993h-2.2v2.993h-0.869V293.703z M610.271,297.631
			c1.155,0,1.979-0.594,1.979-1.584v-0.022c0-0.946-0.726-1.518-1.969-1.518h-2.376v3.125H610.271z"/>
		<path class="st1" d="M614.936,293.703h5.566v0.792h-4.697v2.629h4.202v0.792h-4.202v2.695h4.752v0.792h-5.621V293.703z"/>
		<path class="st1" d="M622.25,293.703h2.674c2.42,0,4.092,1.661,4.092,3.829v0.022c0,2.167-1.672,3.851-4.092,3.851h-2.674V293.703
			z M623.119,294.506v6.095h1.805c1.947,0,3.19-1.32,3.19-3.025v-0.022c0-1.705-1.243-3.047-3.19-3.047H623.119z"/>
		<path class="st1" d="M630.874,293.703h0.869v7.701h-0.869V293.703z"/>
		<path class="st1" d="M633.602,297.576v-0.022c0-2.178,1.629-3.982,3.895-3.982c1.397,0,2.233,0.495,3.004,1.221l-0.594,0.638
			c-0.649-0.616-1.376-1.056-2.421-1.056c-1.705,0-2.981,1.386-2.981,3.157v0.022c0,1.782,1.287,3.18,2.981,3.18
			c1.057,0,1.749-0.407,2.486-1.111l0.572,0.561c-0.803,0.814-1.684,1.353-3.08,1.353
			C635.241,301.536,633.602,299.787,633.602,297.576z"/>
		<path class="st1" d="M644.041,294.506h-2.586v-0.803h6.051v0.803h-2.585v6.898h-0.88V294.506z"/>
		<path class="st1" d="M652.323,293.703h0.88l2.806,4.203l2.806-4.203h0.88v7.701h-0.869v-6.238l-2.806,4.125h-0.044l-2.806-4.115
			v6.227h-0.847V293.703z"/>
		<path class="st1" d="M664.665,293.648h0.814l3.509,7.756h-0.935l-0.902-2.035h-4.191l-0.913,2.035h-0.891L664.665,293.648z
			 M666.811,298.577l-1.749-3.917l-1.761,3.917H666.811z"/>
		<path class="st1" d="M670.109,297.576v-0.022c0-2.178,1.628-3.982,3.895-3.982c1.397,0,2.233,0.495,3.004,1.221l-0.595,0.638
			c-0.648-0.616-1.375-1.056-2.42-1.056c-1.705,0-2.981,1.386-2.981,3.157v0.022c0,1.782,1.287,3.18,2.981,3.18
			c1.056,0,1.749-0.407,2.486-1.111l0.572,0.561c-0.804,0.814-1.684,1.353-3.081,1.353
			C671.749,301.536,670.109,299.787,670.109,297.576z"/>
		<path class="st1" d="M678.513,293.703h0.869v3.421h4.445v-3.421h0.869v7.701h-0.869v-3.465h-4.445v3.465h-0.869V293.703z"/>
		<path class="st1" d="M686.896,293.703h0.869v7.701h-0.869V293.703z"/>
		<path class="st1" d="M689.965,293.703h0.814l4.852,6.172v-6.172h0.848v7.701h-0.693l-4.973-6.315v6.315h-0.848V293.703z"/>
		<path class="st1" d="M698.6,293.703h5.567v0.792h-4.698v2.629h4.203v0.792h-4.203v2.695h4.753v0.792H698.6V293.703z"/>
		<path class="st1" d="M618.042,306.903h3.312c0.946,0,1.705,0.286,2.189,0.77c0.374,0.374,0.594,0.913,0.594,1.519v0.022
			c0,1.276-0.88,2.024-2.09,2.244l2.365,3.146h-1.067l-2.233-2.993h-2.2v2.993h-0.869V306.903z M621.276,310.831
			c1.155,0,1.98-0.594,1.98-1.584v-0.022c0-0.946-0.727-1.518-1.97-1.518h-2.376v3.125H621.276z"/>
		<path class="st1" d="M625.94,306.903h5.566v0.792h-4.697v2.629h4.202v0.792h-4.202v2.695h4.752v0.792h-5.621V306.903z"/>
		<path class="st1" d="M633.256,306.903h0.869v6.898h4.334v0.803h-5.203V306.903z"/>
		<path class="st1" d="M640.086,306.903h0.869v7.701h-0.869V306.903z"/>
		<path class="st1" d="M646.004,306.848h0.814l3.51,7.756h-0.936l-0.902-2.035h-4.191l-0.913,2.035h-0.891L646.004,306.848z
			 M648.149,311.777l-1.749-3.917l-1.761,3.917H648.149z"/>
		<path class="st1" d="M651.79,306.903h3.278c0.88,0,1.573,0.253,2.014,0.682c0.319,0.33,0.495,0.737,0.495,1.232v0.022
			c0,1.001-0.616,1.518-1.222,1.782c0.913,0.275,1.65,0.803,1.65,1.859v0.022c0,1.32-1.111,2.101-2.794,2.101h-3.422V306.903z
			 M656.697,308.938c0-0.759-0.605-1.254-1.706-1.254h-2.343v2.651h2.277c1.045,0,1.771-0.473,1.771-1.375V308.938z
			 M655.079,311.106h-2.431v2.717h2.585c1.166,0,1.893-0.517,1.893-1.375v-0.022C657.126,311.59,656.422,311.106,655.079,311.106z"
			/>
		<path class="st1" d="M659.754,306.903h0.869v7.701h-0.869V306.903z"/>
		<path class="st1" d="M662.823,306.903h0.869v6.898h4.334v0.803h-5.203V306.903z"/>
		<path class="st1" d="M669.652,306.903h0.869v7.701h-0.869V306.903z"/>
		<path class="st1" d="M674.757,307.707h-2.585v-0.803h6.051v0.803h-2.585v6.898h-0.881V307.707z"/>
		<path class="st1" d="M682.204,311.557l-3.201-4.654h1.057l2.596,3.851l2.619-3.851h1.012l-3.201,4.643v3.059h-0.881V311.557z"/>
	</g>
	<g>
		<path class="st1" d="M429.925,304.384h2.673c2.421,0,4.093,1.661,4.093,3.829v0.022c0,2.167-1.672,3.851-4.093,3.851h-2.673
			V304.384z M430.794,305.187v6.095h1.804c1.947,0,3.19-1.32,3.19-3.025v-0.022c0-1.705-1.243-3.047-3.19-3.047H430.794z"/>
		<path class="st1" d="M438.472,304.384h5.566v0.792h-4.697v2.629h4.202v0.792h-4.202v2.695h4.752v0.792h-5.621V304.384z"/>
		<path class="st1" d="M445.787,304.384h5.533v0.803h-4.664v2.75h4.169v0.792h-4.169v3.355h-0.869V304.384z"/>
		<path class="st1" d="M452.947,304.384h5.566v0.792h-4.697v2.629h4.202v0.792h-4.202v2.695h4.753v0.792h-5.622V304.384z"/>
		<path class="st1" d="M459.921,308.256v-0.022c0-2.178,1.629-3.982,3.895-3.982c1.397,0,2.233,0.495,3.004,1.221l-0.594,0.638
			c-0.649-0.616-1.376-1.056-2.421-1.056c-1.705,0-2.981,1.386-2.981,3.157v0.022c0,1.782,1.287,3.18,2.981,3.18
			c1.057,0,1.749-0.407,2.486-1.111l0.572,0.561c-0.803,0.814-1.684,1.353-3.08,1.353
			C461.561,312.217,459.921,310.468,459.921,308.256z"/>
		<path class="st1" d="M470.36,305.187h-2.585v-0.803h6.051v0.803h-2.586v6.898h-0.88V305.187z"/>
		<path class="st1" d="M478.644,304.384h5.566v0.792h-4.697v2.629h4.202v0.792h-4.202v2.695h4.752v0.792h-5.621V304.384z"/>
		<path class="st1" d="M485.958,304.384h0.869v6.898h4.335v0.803h-5.204V304.384z"/>
		<path class="st1" d="M492.789,304.384h0.869v7.701h-0.869V304.384z"/>
		<path class="st1" d="M495.858,304.384h0.88l2.806,4.203l2.805-4.203h0.881v7.701h-0.869v-6.238l-2.806,4.125h-0.044l-2.806-4.115
			v6.227h-0.847V304.384z"/>
		<path class="st1" d="M505.428,304.384h0.869v7.701h-0.869V304.384z"/>
		<path class="st1" d="M508.496,304.384h0.814l4.852,6.172v-6.172h0.848v7.701h-0.693l-4.973-6.315v6.315h-0.848V304.384z"/>
		<path class="st1" d="M519.98,304.329h0.814l3.509,7.756h-0.935l-0.902-2.035h-4.191l-0.913,2.035h-0.892L519.98,304.329z
			 M522.126,309.257l-1.749-3.917l-1.761,3.917H522.126z"/>
		<path class="st1" d="M527.801,305.187h-2.585v-0.803h6.051v0.803h-2.585v6.898h-0.881V305.187z"/>
		<path class="st1" d="M532.915,304.384h0.869v7.701h-0.869V304.384z"/>
		<path class="st1" d="M535.644,308.256v-0.022c0-2.123,1.596-3.982,3.938-3.982c2.344,0,3.917,1.837,3.917,3.96v0.022
			c0,2.124-1.596,3.982-3.938,3.982C537.217,312.217,535.644,310.38,535.644,308.256z M542.597,308.256v-0.022
			c0-1.749-1.276-3.179-3.036-3.179c-1.761,0-3.015,1.408-3.015,3.157v0.022c0,1.75,1.276,3.18,3.036,3.18
			C541.343,311.414,542.597,310.006,542.597,308.256z"/>
		<path class="st1" d="M545.279,304.384h0.814l4.852,6.172v-6.172h0.848v7.701H551.1l-4.973-6.315v6.315h-0.848V304.384z"/>
		<path class="st1" d="M457.831,318.387h-2.585v-0.803h6.051v0.803h-2.586v6.898h-0.88V318.387z"/>
		<path class="st1" d="M462.527,321.457v-0.022c0-2.123,1.596-3.982,3.938-3.982c2.344,0,3.917,1.837,3.917,3.96v0.022
			c0,2.124-1.596,3.982-3.938,3.982C464.101,325.417,462.527,323.58,462.527,321.457z M469.48,321.457v-0.022
			c0-1.749-1.276-3.179-3.036-3.179c-1.761,0-3.015,1.408-3.015,3.157v0.022c0,1.75,1.276,3.18,3.036,3.18
			C468.227,324.614,469.48,323.206,469.48,321.457z"/>
		<path class="st1" d="M475.485,317.584h0.869v7.701h-0.869V317.584z"/>
		<path class="st1" d="M478.555,317.584h0.88l2.806,4.203l2.805-4.203h0.881v7.701h-0.869v-6.238l-2.806,4.125h-0.044l-2.806-4.115
			v6.227h-0.847V317.584z"/>
		<path class="st1" d="M488.048,317.584h2.882c1.738,0,2.883,0.924,2.883,2.442v0.022c0,1.661-1.387,2.52-3.025,2.52h-1.87v2.717
			h-0.869V317.584z M490.819,321.776c1.276,0,2.112-0.682,2.112-1.694v-0.022c0-1.1-0.824-1.672-2.067-1.672h-1.947v3.389H490.819z"
			/>
		<path class="st1" d="M495.341,317.584h3.311c0.946,0,1.706,0.286,2.189,0.77c0.374,0.374,0.595,0.913,0.595,1.519v0.022
			c0,1.276-0.881,2.024-2.091,2.244l2.365,3.146h-1.066l-2.233-2.992h-2.2v2.992h-0.869V317.584z M498.575,321.512
			c1.155,0,1.979-0.594,1.979-1.584v-0.022c0-0.946-0.726-1.518-1.969-1.518h-2.376v3.125H498.575z"/>
		<path class="st1" d="M502.897,321.457v-0.022c0-2.123,1.596-3.982,3.938-3.982c2.344,0,3.917,1.837,3.917,3.96v0.022
			c0,2.124-1.596,3.982-3.938,3.982C504.471,325.417,502.897,323.58,502.897,321.457z M509.851,321.457v-0.022
			c0-1.749-1.276-3.179-3.036-3.179c-1.761,0-3.015,1.408-3.015,3.157v0.022c0,1.75,1.276,3.18,3.036,3.18
			C508.597,324.614,509.851,323.206,509.851,321.457z"/>
		<path class="st1" d="M511.872,317.584h0.969l2.739,6.634l2.75-6.634h0.936l-3.312,7.756h-0.771L511.872,317.584z"/>
		<path class="st1" d="M520.728,317.584h5.567v0.792h-4.698v2.629h4.203v0.792h-4.203v2.695h4.753v0.792h-5.622V317.584z"/>
		<path class="st1" d="M447.42,330.784h2.882c1.738,0,2.883,0.924,2.883,2.442v0.022c0,1.661-1.387,2.52-3.025,2.52h-1.87v2.717
			h-0.869V330.784z M450.191,334.976c1.276,0,2.112-0.682,2.112-1.694v-0.022c0-1.1-0.824-1.672-2.067-1.672h-1.947v3.389H450.191z"
			/>
		<path class="st1" d="M454.713,330.784h5.566v0.792h-4.697v2.629h4.202v0.792h-4.202v2.695h4.752v0.792h-5.621V330.784z"/>
		<path class="st1" d="M462.028,330.784h3.311c0.946,0,1.706,0.286,2.189,0.77c0.374,0.374,0.595,0.913,0.595,1.519v0.022
			c0,1.276-0.881,2.024-2.091,2.244l2.365,3.146h-1.066l-2.233-2.993h-2.2v2.993h-0.869V330.784z M465.263,334.711
			c1.155,0,1.979-0.594,1.979-1.584v-0.022c0-0.946-0.726-1.518-1.969-1.518h-2.376v3.125H465.263z"/>
		<path class="st1" d="M469.926,330.784h5.534v0.803h-4.665v2.75h4.17v0.792h-4.17v3.355h-0.869V330.784z"/>
		<path class="st1" d="M476.745,334.656v-0.022c0-2.123,1.596-3.982,3.938-3.982c2.344,0,3.917,1.837,3.917,3.96v0.022
			c0,2.124-1.596,3.982-3.938,3.982C478.318,338.617,476.745,336.78,476.745,334.656z M483.698,334.656v-0.022
			c0-1.749-1.276-3.179-3.036-3.179c-1.761,0-3.015,1.408-3.015,3.157v0.022c0,1.75,1.276,3.18,3.036,3.18
			C482.444,337.814,483.698,336.406,483.698,334.656z"/>
		<path class="st1" d="M486.382,330.784h3.312c0.946,0,1.705,0.286,2.189,0.77c0.374,0.374,0.594,0.913,0.594,1.519v0.022
			c0,1.276-0.88,2.024-2.09,2.244l2.365,3.146h-1.067l-2.233-2.993h-2.2v2.993h-0.869V330.784z M489.616,334.711
			c1.155,0,1.98-0.594,1.98-1.584v-0.022c0-0.946-0.727-1.518-1.97-1.518h-2.376v3.125H489.616z"/>
		<path class="st1" d="M494.28,330.784h0.88l2.806,4.203l2.805-4.203h0.881v7.701h-0.869v-6.238l-2.806,4.125h-0.044l-2.806-4.115
			v6.227h-0.847V330.784z"/>
		<path class="st1" d="M506.622,330.729h0.814l3.509,7.756h-0.935l-0.902-2.035h-4.191l-0.913,2.035h-0.891L506.622,330.729z
			 M508.768,335.657l-1.749-3.917l-1.761,3.917H508.768z"/>
		<path class="st1" d="M512.406,330.784h0.814l4.852,6.172v-6.172h0.848v7.701h-0.693l-4.973-6.315v6.315h-0.848V330.784z"/>
		<path class="st1" d="M520.7,334.656v-0.022c0-2.178,1.628-3.982,3.895-3.982c1.397,0,2.233,0.495,3.004,1.221l-0.595,0.638
			c-0.648-0.616-1.375-1.056-2.42-1.056c-1.705,0-2.981,1.386-2.981,3.157v0.022c0,1.782,1.287,3.18,2.981,3.18
			c1.056,0,1.749-0.407,2.486-1.111l0.572,0.561c-0.804,0.814-1.684,1.353-3.081,1.353C522.34,338.617,520.7,336.868,520.7,334.656z
			"/>
		<path class="st1" d="M529.104,330.784h5.567v0.792h-4.698v2.629h4.203v0.792h-4.203v2.695h4.753v0.792h-5.622V330.784z"/>
	</g>
	<g>
		<path class="st1" d="M296.52,338.601l0.539-0.638c0.803,0.726,1.573,1.089,2.641,1.089c1.034,0,1.716-0.55,1.716-1.31v-0.022
			c0-0.715-0.385-1.122-2.002-1.463c-1.771-0.385-2.585-0.958-2.585-2.223v-0.022c0-1.21,1.067-2.101,2.53-2.101
			c1.122,0,1.925,0.319,2.707,0.946l-0.506,0.671c-0.715-0.583-1.43-0.836-2.222-0.836c-1.001,0-1.639,0.55-1.639,1.243v0.022
			c0,0.726,0.396,1.133,2.09,1.496c1.716,0.374,2.508,1.001,2.508,2.178v0.022c0,1.32-1.1,2.178-2.629,2.178
			C298.445,339.833,297.444,339.426,296.52,338.601z"/>
		<path class="st1" d="M303.67,335.894v-0.022c0-2.178,1.628-3.982,3.895-3.982c1.397,0,2.233,0.495,3.003,1.221l-0.594,0.638
			c-0.649-0.616-1.375-1.056-2.42-1.056c-1.706,0-2.981,1.386-2.981,3.157v0.022c0,1.782,1.287,3.18,2.981,3.18
			c1.056,0,1.749-0.407,2.486-1.111l0.572,0.561c-0.803,0.814-1.683,1.353-3.08,1.353
			C305.309,339.854,303.67,338.105,303.67,335.894z"/>
		<path class="st1" d="M312.074,332.021h0.869v3.421h4.444v-3.421h0.869v7.701h-0.869v-3.465h-4.444v3.465h-0.869V332.021z"/>
		<path class="st1" d="M320.379,332.021h5.566v0.792h-4.697v2.629h4.202v0.792h-4.202v2.695H326v0.792h-5.622V332.021z"/>
		<path class="st1" d="M327.694,332.021h2.673c2.42,0,4.092,1.661,4.092,3.829v0.022c0,2.167-1.672,3.851-4.092,3.851h-2.673
			V332.021z M328.563,332.825v6.095h1.804c1.947,0,3.19-1.32,3.19-3.025v-0.022c0-1.705-1.243-3.047-3.19-3.047H328.563z"/>
		<path class="st1" d="M336.12,336.499v-4.478h0.869v4.423c0,1.661,0.891,2.596,2.354,2.596c1.419,0,2.322-0.858,2.322-2.542v-4.478
			h0.869v4.412c0,2.245-1.287,3.411-3.212,3.411C337.418,339.844,336.12,338.678,336.12,336.499z"/>
		<path class="st1" d="M344.535,332.021h0.869v6.898h4.334v0.803h-5.204V332.021z"/>
		<path class="st1" d="M351.288,332.021h5.567v0.792h-4.698v2.629h4.203v0.792h-4.203v2.695h4.753v0.792h-5.622V332.021z"/>
		<path class="st1" d="M358.603,332.021h2.674c2.42,0,4.093,1.661,4.093,3.829v0.022c0,2.167-1.673,3.851-4.093,3.851h-2.674
			V332.021z M359.472,332.825v6.095h1.805c1.947,0,3.19-1.32,3.19-3.025v-0.022c0-1.705-1.243-3.047-3.19-3.047H359.472z"/>
		<path class="st1" d="M289.299,345.222h0.88l2.806,4.203l2.805-4.203h0.88v7.701h-0.869v-6.238l-2.806,4.125h-0.044l-2.805-4.115
			v6.227h-0.847V345.222z"/>
		<path class="st1" d="M301.641,345.167h0.814l3.51,7.756h-0.935l-0.902-2.035h-4.191l-0.913,2.035h-0.891L301.641,345.167z
			 M303.787,350.095l-1.75-3.917l-1.76,3.917H303.787z"/>
		<path class="st1" d="M307.504,345.222h0.869v7.701h-0.869V345.222z"/>
		<path class="st1" d="M310.573,345.222h0.814l4.852,6.172v-6.172h0.847v7.701h-0.693l-4.973-6.315v6.315h-0.847V345.222z"/>
		<path class="st1" d="M321.243,346.025h-2.585v-0.803h6.051v0.803h-2.585v6.898h-0.88V346.025z"/>
		<path class="st1" d="M326.281,345.222h5.566v0.792h-4.697v2.629h4.203v0.792h-4.203v2.695h4.752v0.792h-5.622V345.222z"/>
		<path class="st1" d="M333.596,345.222h0.814l4.852,6.172v-6.172h0.847v7.701h-0.693l-4.973-6.315v6.315h-0.847V345.222z"/>
		<path class="st1" d="M345.08,345.167h0.814l3.509,7.756h-0.935l-0.902-2.035h-4.191l-0.913,2.035h-0.891L345.08,345.167z
			 M347.226,350.095l-1.75-3.917l-1.76,3.917H347.226z"/>
		<path class="st1" d="M350.864,345.222h0.814l4.852,6.172v-6.172h0.848v7.701h-0.693l-4.973-6.315v6.315h-0.848V345.222z"/>
		<path class="st1" d="M359.158,349.094v-0.022c0-2.178,1.628-3.982,3.895-3.982c1.397,0,2.233,0.495,3.004,1.221l-0.595,0.638
			c-0.648-0.616-1.375-1.056-2.42-1.056c-1.705,0-2.981,1.386-2.981,3.157v0.022c0,1.782,1.287,3.18,2.981,3.18
			c1.056,0,1.749-0.407,2.486-1.111l0.572,0.561c-0.804,0.814-1.684,1.353-3.081,1.353
			C360.798,353.055,359.158,351.306,359.158,349.094z"/>
		<path class="st1" d="M367.562,345.222h5.567v0.792h-4.698v2.629h4.203v0.792h-4.203v2.695h4.753v0.792h-5.622V345.222z"/>
		<path class="st1" d="M303.55,358.366h0.814l3.509,7.756h-0.935l-0.902-2.035h-4.191l-0.913,2.035h-0.891L303.55,358.366z
			 M305.695,363.295l-1.75-3.917l-1.76,3.917H305.695z"/>
		<path class="st1" d="M308.994,362.294v-0.022c0-2.178,1.628-3.982,3.895-3.982c1.397,0,2.233,0.495,3.003,1.221l-0.594,0.638
			c-0.649-0.616-1.375-1.056-2.42-1.056c-1.706,0-2.981,1.386-2.981,3.157v0.022c0,1.782,1.287,3.18,2.981,3.18
			c1.056,0,1.749-0.407,2.486-1.111l0.572,0.561c-0.803,0.814-1.683,1.353-3.08,1.353
			C310.633,366.254,308.994,364.505,308.994,362.294z"/>
		<path class="st1" d="M319.434,359.225h-2.585v-0.803h6.051v0.803h-2.585v6.898h-0.88V359.225z"/>
		<path class="st1" d="M324.548,358.421h0.869v7.701h-0.869V358.421z"/>
		<path class="st1" d="M326.957,358.421h0.968l2.74,6.634l2.75-6.634h0.935l-3.312,7.756h-0.77L326.957,358.421z"/>
		<path class="st1" d="M335.889,358.421h0.869v7.701h-0.869V358.421z"/>
		<path class="st1" d="M340.993,359.225h-2.585v-0.803h6.051v0.803h-2.585v6.898h-0.88V359.225z"/>
		<path class="st1" d="M346.107,358.421h0.869v7.701h-0.869V358.421z"/>
		<path class="st1" d="M349.176,358.421h5.567v0.792h-4.698v2.629h4.203v0.792h-4.203v2.695h4.753v0.792h-5.622V358.421z"/>
		<path class="st1" d="M355.985,365l0.539-0.638c0.803,0.726,1.573,1.089,2.641,1.089c1.034,0,1.716-0.55,1.716-1.31v-0.022
			c0-0.715-0.385-1.122-2.002-1.463c-1.771-0.385-2.585-0.958-2.585-2.223v-0.022c0-1.21,1.066-2.101,2.53-2.101
			c1.122,0,1.925,0.319,2.706,0.946l-0.506,0.671c-0.716-0.583-1.431-0.836-2.223-0.836c-1.001,0-1.64,0.55-1.64,1.243v0.022
			c0,0.726,0.396,1.133,2.091,1.496c1.716,0.374,2.509,1.001,2.509,2.178v0.022c0,1.32-1.101,2.178-2.63,2.178
			C357.911,366.232,356.909,365.826,355.985,365z"/>
	</g>
	<g>
		<path class="st1" d="M140.483,349.033h5.534v0.803h-4.665v2.75h4.169v0.792h-4.169v3.355h-0.869V349.033z"/>
		<path class="st1" d="M147.721,349.033h0.869v7.701h-0.869V349.033z"/>
		<path class="st1" d="M157.061,349.033l-2.838,3.773l2.949,3.928h-1.034l-2.464-3.322l-2.464,3.322h-1.001l2.949-3.928
			l-2.838-3.773h1.023l2.354,3.168l2.354-3.168H157.061z"/>
		<path class="st1" d="M161.36,349.033h0.946l2.2,6.414l2.112-6.436h0.715l2.112,6.436l2.201-6.414h0.913l-2.75,7.756h-0.737
			l-2.112-6.249l-2.123,6.249h-0.726L161.36,349.033z"/>
		<path class="st1" d="M174.077,349.033h0.869v3.421h4.444v-3.421h0.869v7.701h-0.869v-3.465h-4.444v3.465h-0.869V349.033z"/>
		<path class="st1" d="M182.381,349.033h5.566v0.792h-4.697v2.629h4.202v0.792h-4.202v2.695h4.753v0.792h-5.622V349.033z"/>
		<path class="st1" d="M189.696,349.033h0.814l4.852,6.172v-6.172h0.848v7.701h-0.693l-4.973-6.315v6.315h-0.848V349.033z"/>
		<path class="st1" d="M144.966,362.233h3.278c0.88,0,1.573,0.253,2.013,0.682c0.319,0.33,0.495,0.737,0.495,1.232v0.022
			c0,1.001-0.616,1.518-1.221,1.782c0.913,0.275,1.65,0.803,1.65,1.859v0.022c0,1.32-1.111,2.101-2.794,2.101h-3.421V362.233z
			 M149.873,364.268c0-0.759-0.605-1.254-1.706-1.254h-2.343v2.651h2.277c1.045,0,1.771-0.473,1.771-1.375V364.268z
			 M148.255,366.436h-2.431v2.717h2.585c1.166,0,1.892-0.517,1.892-1.375v-0.022C150.301,366.919,149.597,366.436,148.255,366.436z"
			/>
		<path class="st1" d="M152.853,362.233h3.311c0.946,0,1.706,0.286,2.189,0.77c0.374,0.374,0.594,0.913,0.594,1.519v0.022
			c0,1.276-0.88,2.024-2.09,2.244l2.365,3.146h-1.067l-2.233-2.992h-2.2v2.992h-0.869V362.233z M156.087,366.161
			c1.155,0,1.98-0.594,1.98-1.584v-0.022c0-0.946-0.726-1.518-1.969-1.518h-2.376v3.125H156.087z"/>
		<path class="st1" d="M160.41,366.105v-0.022c0-2.123,1.595-3.982,3.938-3.982s3.917,1.837,3.917,3.96v0.022
			c0,2.124-1.595,3.982-3.938,3.982S160.41,368.229,160.41,366.105z M167.363,366.105v-0.022c0-1.749-1.276-3.179-3.037-3.179
			s-3.014,1.408-3.014,3.157v0.022c0,1.75,1.276,3.18,3.036,3.18S167.363,367.855,167.363,366.105z"/>
		<path class="st1" d="M170.046,362.233h0.869v4.599l4.422-4.599h1.122l-3.3,3.367l3.443,4.334h-1.089l-2.959-3.729l-1.639,1.661
			v2.068h-0.869V362.233z"/>
		<path class="st1" d="M177.9,362.233h5.566v0.792h-4.697v2.629h4.202v0.792h-4.202v2.695h4.752v0.792H177.9V362.233z"/>
		<path class="st1" d="M185.214,362.233h0.814l4.852,6.172v-6.172h0.848v7.701h-0.693l-4.973-6.315v6.315h-0.848V362.233z"/>
	</g>
	<g>
		<path class="st3" d="M138.18,393.681h1.847v6.716h4.186v1.68h-6.033V393.681z"/>
		<path class="st3" d="M145.547,393.681h6.333v1.643h-4.498v1.703h3.958v1.643h-3.958v1.763h4.558v1.644h-6.393V393.681z"/>
		<path class="st3" d="M152.808,393.681h2.039l2.194,5.913l2.194-5.913h1.991l-3.394,8.456h-1.632L152.808,393.681z"/>
		<path class="st3" d="M162.468,393.681h6.332v1.643h-4.497v1.703h3.957v1.643h-3.957v1.763h4.558v1.644h-6.393V393.681z"/>
		<path class="st3" d="M170.447,393.681h1.847v6.716h4.186v1.68h-6.032V393.681z"/>
		<path class="st3" d="M181.438,393.681h1.847v8.396h-1.847V393.681z"/>
	</g>
	<g>
		<path class="st3" d="M298.33,393.681h1.847v6.716h4.186v1.68h-6.033V393.681z"/>
		<path class="st3" d="M305.697,393.681h6.333v1.643h-4.498v1.703h3.958v1.643h-3.958v1.763h4.558v1.644h-6.393V393.681z"/>
		<path class="st3" d="M312.958,393.681h2.039l2.194,5.913l2.194-5.913h1.991l-3.394,8.456h-1.632L312.958,393.681z"/>
		<path class="st3" d="M322.618,393.681h6.332v1.643h-4.497v1.703h3.957v1.643h-3.957v1.763h4.558v1.644h-6.393V393.681z"/>
		<path class="st3" d="M330.597,393.681h1.847v6.716h4.186v1.68h-6.032V393.681z"/>
		<path class="st3" d="M341.588,393.681h1.847v8.396h-1.847V393.681z"/>
		<path class="st3" d="M345.561,393.681h1.847v8.396h-1.847V393.681z"/>
	</g>
	<g>
		<path class="st3" d="M458.152,393.681H460v6.716h4.186v1.68h-6.033V393.681z"/>
		<path class="st3" d="M465.521,393.681h6.332v1.643h-4.497v1.703h3.958v1.643h-3.958v1.763h4.558v1.644h-6.393V393.681z"/>
		<path class="st3" d="M472.78,393.681h2.039l2.194,5.913l2.194-5.913h1.991l-3.394,8.456h-1.632L472.78,393.681z"/>
		<path class="st3" d="M482.44,393.681h6.332v1.643h-4.497v1.703h3.957v1.643h-3.957v1.763h4.558v1.644h-6.393V393.681z"/>
		<path class="st3" d="M490.42,393.681h1.847v6.716h4.186v1.68h-6.032V393.681z"/>
		<path class="st3" d="M501.411,393.681h1.847v8.396h-1.847V393.681z"/>
		<path class="st3" d="M505.384,393.681h1.847v8.396h-1.847V393.681z"/>
		<path class="st3" d="M509.355,393.681h1.847v8.396h-1.847V393.681z"/>
	</g>
	<g>
		<path class="st3" d="M615.794,393.681h1.848v6.716h4.186v1.68h-6.033V393.681z"/>
		<path class="st3" d="M623.162,393.681h6.332v1.643h-4.497v1.703h3.958v1.643h-3.958v1.763h4.558v1.644h-6.393V393.681z"/>
		<path class="st3" d="M630.422,393.681h2.039l2.194,5.913l2.194-5.913h1.991l-3.394,8.456h-1.632L630.422,393.681z"/>
		<path class="st3" d="M640.082,393.681h6.332v1.643h-4.497v1.703h3.957v1.643h-3.957v1.763h4.558v1.644h-6.393V393.681z"/>
		<path class="st3" d="M648.062,393.681h1.847v6.716h4.186v1.68h-6.032V393.681z"/>
		<path class="st3" d="M659.053,393.681h1.847v8.396h-1.847V393.681z"/>
		<path class="st3" d="M662.222,393.681h2.039l2.194,5.913l2.195-5.913h1.99l-3.394,8.456h-1.632L662.222,393.681z"/>
	</g>
	<g>
		<path class="st3" d="M71.993,373.481v-3.838c0-1.067,0.3-1.895,0.852-2.447c0.468-0.468,1.127-0.72,1.919-0.72h0.024
			c1.355,0,2.207,0.732,2.603,1.799l2.999-2.051v2.159l-2.687,1.799v1.451h2.687v1.847H71.993z M76.071,369.763
			c0-0.899-0.48-1.415-1.188-1.415H74.86c-0.792,0-1.2,0.552-1.2,1.451v1.835h2.411V369.763z"/>
		<path class="st3" d="M71.993,364.866v-6.333h1.643v4.498h1.703v-3.958h1.643v3.958h1.763v-4.558h1.643v6.393H71.993z"/>
		<path class="st3" d="M71.993,356.886v-1.847h6.716v-4.186h1.679v6.032H71.993z"/>
		<path class="st3" d="M71.993,349.434v-1.847h8.396v1.847H71.993z"/>
		<path class="st3" d="M71.933,342.668v-1.703l8.456-3.598v1.931l-1.883,0.768v3.55l1.883,0.768v1.883L71.933,342.668z
			 M76.875,340.725l-2.722,1.115l2.722,1.116V340.725z"/>
		<path class="st3" d="M71.993,336.126v-3.897c0-0.96,0.264-1.715,0.744-2.195c0.384-0.383,0.852-0.575,1.427-0.575h0.024
			c0.948,0,1.475,0.504,1.811,1.104c0.372-0.972,0.936-1.571,2.063-1.571h0.024c1.535,0,2.303,1.247,2.303,3.143v3.993H71.993z
			 M74.476,331.293c-0.552,0-0.864,0.432-0.864,1.211v1.823h1.775v-1.703c0-0.815-0.264-1.331-0.887-1.331H74.476z M76.922,332.192
			v2.135h1.847v-2.194c0-0.815-0.288-1.308-0.912-1.308h-0.024C77.271,330.825,76.922,331.245,76.922,332.192z"/>
		<path class="st3" d="M71.993,327.438v-1.847h8.396v1.847H71.993z"/>
		<path class="st3" d="M71.993,323.55v-1.847h6.716v-4.186h1.679v6.032H71.993z"/>
		<path class="st3" d="M71.993,316.099v-1.847h8.396v1.847H71.993z"/>
		<path class="st3" d="M73.696,310.256v2.554h-1.703v-6.956h1.703v2.555h6.692v1.848H73.696z"/>
		<path class="st3" d="M77.079,302.131l-5.085,3.227v-2.159l3.37-2.003l-3.37-2.039v-2.099l5.049,3.227h3.346v1.847H77.079z"/>
		<path class="st3" d="M73.96,296.166v-1.942h1.919v1.942H73.96z M78.47,296.166v-1.942h1.919v1.942H78.47z"/>
		<path class="st3" d="M76.215,289.303h-0.024c-2.387,0-4.341-1.883-4.341-4.474s1.931-4.449,4.317-4.449h0.024
			c2.387,0,4.342,1.883,4.342,4.474C80.533,287.443,78.602,289.303,76.215,289.303z M76.215,282.311h-0.024
			c-1.439,0-2.639,1.056-2.639,2.543s1.175,2.519,2.615,2.519h0.024c1.439,0,2.639-1.056,2.639-2.543S77.654,282.311,76.215,282.311
			z"/>
		<path class="st3" d="M71.993,278.79v-6.332h1.643v4.497h1.703v-3.957h1.643v3.957h1.763v-4.558h1.643v6.393H71.993z"/>
		<path class="st3" d="M71.993,270.811v-6.332h1.643v4.497h1.703v-3.957h1.643v3.957h1.763v-4.558h1.643v6.393H71.993z"/>
		<path class="st3" d="M71.933,256.412v-1.703l8.456-3.598v1.931l-1.883,0.768v3.55l1.883,0.768v1.883L71.933,256.412z
			 M76.875,254.469l-2.722,1.115l2.722,1.116V254.469z"/>
		<path class="st3" d="M71.993,249.871v-1.703l5.169-3.934h-5.169v-1.823h8.396v1.571l-5.337,4.066h5.337v1.822H71.993z"/>
		<path class="st3" d="M71.993,240.451v-3.273c0-2.639,1.811-4.462,4.174-4.462h0.024c2.363,0,4.198,1.823,4.198,4.462v3.273H71.993
			z M73.66,238.604h5.062v-1.427c0-1.512-1.02-2.531-2.507-2.531h-0.024c-1.487,0-2.531,1.02-2.531,2.531V238.604z"/>
		<path class="st3" d="M76.791,227.72h-4.797v-1.847h4.75c1.367,0,2.075-0.684,2.075-1.811c0-1.128-0.684-1.812-2.015-1.812h-4.81
			v-1.847h4.737c2.543,0,3.79,1.427,3.79,3.682S79.261,227.72,76.791,227.72z"/>
		<path class="st3" d="M71.993,218.576v-3.43c0-2.003,1.188-3.214,2.902-3.214h0.024c1.943,0,2.95,1.511,2.95,3.394v1.403h2.519
			v1.847H71.993z M76.227,215.267c0-0.924-0.552-1.464-1.271-1.464h-0.024c-0.828,0-1.271,0.576-1.271,1.5v1.427h2.567V215.267z"/>
		<path class="st3" d="M73.696,208.666v2.554h-1.703v-6.956h1.703v2.555h6.692v1.848H73.696z"/>
		<path class="st3" d="M71.993,202.82v-1.847h8.396v1.847H71.993z"/>
		<path class="st3" d="M71.993,198.932v-1.99l3.55-2.207l-3.55-2.207v-1.99h8.396v1.835h-5.481l3.586,2.362v0.048l-3.55,2.339h5.445
			v1.811H71.993z"/>
		<path class="st3" d="M71.993,188.575v-6.332h1.643v4.497h1.703v-3.957h1.643v3.957h1.763v-4.558h1.643v6.393H71.993z"/>
	</g>
	<path class="st3" d="M249.918,387.356H88.586V36.181h161.332V387.356z M89.092,386.85h160.32V36.687H89.092V386.85z"/>
	<path class="st3" d="M411.326,415.604H249.5V77.934h161.826V415.604z M250.5,414.604h159.826V78.934H250.5V414.604z"/>
	<path class="st3" d="M571.696,415.356H410.365V78.181h161.332V415.356z M410.871,414.851h160.32V78.687h-160.32V414.851z"/>
	<path class="st3" d="M732.61,417.604H570.784V75.934H732.61V417.604z M571.784,416.604H731.61V76.934H571.784V416.604z"/>
	<g>
		<path class="st1" d="M194.196,286.103h-51.829c-0.167,0-0.327-0.066-0.444-0.185c-0.118-0.119-0.183-0.279-0.181-0.446l0.034-3.73
			c0-0.055,0.008-0.11,0.023-0.164c0.269-0.953,1.644-1.452,2.863-1.452h47.345c1.219,0,2.594,0.499,2.863,1.452
			c0.017,0.06,0.024,0.121,0.023,0.182l-0.073,3.73C194.814,285.83,194.537,286.103,194.196,286.103z M142.998,284.853h50.585
			l0.058-2.979c-0.141-0.177-0.752-0.499-1.634-0.499h-47.345c-0.889,0-1.503,0.327-1.638,0.504L142.998,284.853z"/>
		<path class="st1" d="M190.51,308.636h-44.351c-0.345,0-0.625-0.28-0.625-0.625v-22.534c0-0.345,0.28-0.625,0.625-0.625
			s0.625,0.28,0.625,0.625v21.909h43.101V285.6c0-0.345,0.28-0.625,0.625-0.625s0.625,0.28,0.625,0.625v22.412
			C191.135,308.356,190.855,308.636,190.51,308.636z"/>
		<path class="st1" d="M168.318,297.37c-0.1,0-0.2-0.024-0.291-0.072l-5.535-2.906c-0.206-0.108-0.334-0.321-0.334-0.553v-8.361
			c0-0.345,0.28-0.625,0.625-0.625h11.103c0.345,0,0.625,0.28,0.625,0.625v8.361c0,0.233-0.129,0.446-0.336,0.554l-5.568,2.906
			C168.517,297.346,168.417,297.37,168.318,297.37z M163.408,293.461l4.911,2.578l4.942-2.579v-7.357h-9.853V293.461z
			 M173.886,293.839h0.01H173.886z"/>
		<path class="st1" d="M159.257,281.376c-0.201,0-0.397-0.096-0.518-0.275l-2.52-3.727c-3.917,0.527-7.827-1.213-10.051-4.502
			c-2.301-3.403-2.389-7.861-0.225-11.356c0.111-0.18,0.307-0.292,0.519-0.296c0.238,0.01,0.412,0.1,0.53,0.275l3.292,4.869
			c0.054,0.08,0.131,0.105,0.171,0.113c0.042,0.008,0.122,0.013,0.2-0.041l5.18-3.501c0.122-0.083,0.154-0.25,0.072-0.373
			l-3.292-4.87c-0.119-0.176-0.141-0.399-0.058-0.595c0.083-0.195,0.259-0.335,0.468-0.371c4.049-0.704,8.154,1.039,10.454,4.441
			c2.225,3.29,2.381,7.565,0.433,11.005l5.353,7.917c0.193,0.286,0.119,0.674-0.167,0.868c-0.286,0.193-0.675,0.118-0.868-0.167
			l-5.574-8.245c-0.138-0.204-0.144-0.47-0.014-0.679c1.905-3.078,1.828-7.002-0.197-9.998c-1.839-2.72-4.98-4.231-8.22-4.027
			l2.718,4.021c0.469,0.693,0.287,1.639-0.406,2.108l-5.18,3.501c-0.336,0.228-0.739,0.31-1.138,0.233
			c-0.398-0.077-0.742-0.304-0.969-0.64l-2.719-4.021c-1.399,2.922-1.166,6.408,0.673,9.129c2.025,2.996,5.64,4.533,9.205,3.909
			c0.24-0.042,0.487,0.061,0.625,0.266l2.741,4.054c0.193,0.286,0.119,0.675-0.167,0.868
			C159.499,281.341,159.377,281.376,159.257,281.376z"/>
		<path class="st1" d="M182.286,280.938c-0.345,0-0.625-0.28-0.625-0.625v-4.974c0-0.345,0.28-0.625,0.625-0.625h1.576l2.712-4.475
			l-3.761-12.977h-5.133l-3.761,12.977l2.712,4.475h1.62c0.345,0,0.625,0.28,0.625,0.625v4.974c0,0.345-0.28,0.625-0.625,0.625
			s-0.625-0.28-0.625-0.625v-4.349h-1.347c-0.219,0-0.421-0.114-0.535-0.301l-3.037-5.01c-0.09-0.149-0.114-0.33-0.065-0.498
			l3.968-13.691c0.077-0.267,0.322-0.451,0.6-0.451h6.073c0.278,0,0.523,0.184,0.6,0.451l3.968,13.691
			c0.049,0.168,0.025,0.348-0.065,0.498l-3.037,5.01c-0.113,0.187-0.316,0.301-0.535,0.301h-1.303v4.349
			C182.911,280.658,182.631,280.938,182.286,280.938z"/>
	</g>
	<g>
		<path class="st1" d="M327.402,264.56h-3.3c-0.965,0-1.75-0.785-1.75-1.75v-3.3c0-0.965,0.785-1.75,1.75-1.75h3.3
			c0.965,0,1.75,0.785,1.75,1.75v3.3C329.152,263.774,328.367,264.56,327.402,264.56z M324.102,259.008c-0.276,0-0.5,0.225-0.5,0.5
			v3.3c0,0.276,0.225,0.5,0.5,0.5h3.3c0.276,0,0.5-0.225,0.5-0.5v-3.3c0-0.276-0.225-0.5-0.5-0.5H324.102z"/>
		<path class="st1" d="M337.897,264.56h-3.3c-0.965,0-1.751-0.785-1.751-1.75v-3.3c0-0.965,0.786-1.75,1.751-1.75h3.3
			c0.965,0,1.751,0.785,1.751,1.75v3.3C339.648,263.774,338.863,264.56,337.897,264.56z M334.598,259.008
			c-0.276,0-0.501,0.225-0.501,0.5v3.3c0,0.276,0.225,0.5,0.501,0.5h3.3c0.276,0,0.501-0.225,0.501-0.5v-3.3
			c0-0.276-0.225-0.5-0.501-0.5H334.598z"/>
		<path class="st1" d="M348.394,264.56h-3.3c-0.965,0-1.75-0.785-1.75-1.75v-3.3c0-0.965,0.785-1.75,1.75-1.75h3.3
			c0.965,0,1.75,0.785,1.75,1.75v3.3C350.144,263.774,349.359,264.56,348.394,264.56z M345.093,259.008c-0.276,0-0.5,0.225-0.5,0.5
			v3.3c0,0.276,0.225,0.5,0.5,0.5h3.3c0.276,0,0.5-0.225,0.5-0.5v-3.3c0-0.276-0.225-0.5-0.5-0.5H345.093z"/>
		<path class="st1" d="M316.906,274.929h-3.3c-0.965,0-1.75-0.785-1.75-1.75v-3.3c0-0.965,0.785-1.75,1.75-1.75h3.3
			c0.965,0,1.75,0.785,1.75,1.75v3.3C318.656,274.144,317.871,274.929,316.906,274.929z M313.605,269.377
			c-0.276,0-0.5,0.225-0.5,0.5v3.3c0,0.276,0.225,0.5,0.5,0.5h3.3c0.276,0,0.5-0.225,0.5-0.5v-3.3c0-0.276-0.225-0.5-0.5-0.5
			H313.605z"/>
		<path class="st1" d="M337.897,274.929h-3.3c-0.965,0-1.751-0.785-1.751-1.75v-3.3c0-0.965,0.786-1.75,1.751-1.75h3.3
			c0.965,0,1.751,0.785,1.751,1.75v3.3C339.648,274.144,338.863,274.929,337.897,274.929z M334.598,269.377
			c-0.276,0-0.501,0.225-0.501,0.5v3.3c0,0.276,0.225,0.5,0.501,0.5h3.3c0.276,0,0.501-0.225,0.501-0.5v-3.3
			c0-0.276-0.225-0.5-0.501-0.5H334.598z"/>
		<path class="st1" d="M348.394,274.929h-3.3c-0.965,0-1.75-0.785-1.75-1.75v-3.3c0-0.965,0.785-1.75,1.75-1.75h3.3
			c0.965,0,1.75,0.785,1.75,1.75v3.3C350.144,274.144,349.359,274.929,348.394,274.929z M345.093,269.377
			c-0.276,0-0.5,0.225-0.5,0.5v3.3c0,0.276,0.225,0.5,0.5,0.5h3.3c0.276,0,0.5-0.225,0.5-0.5v-3.3c0-0.276-0.225-0.5-0.5-0.5
			H345.093z"/>
		<path class="st1" d="M316.906,285.298h-3.3c-0.965,0-1.75-0.785-1.75-1.75v-3.3c0-0.965,0.785-1.751,1.75-1.751h3.3
			c0.965,0,1.75,0.786,1.75,1.751v3.3C318.656,284.513,317.871,285.298,316.906,285.298z M313.605,279.747
			c-0.276,0-0.5,0.225-0.5,0.501v3.3c0,0.276,0.225,0.5,0.5,0.5h3.3c0.276,0,0.5-0.225,0.5-0.5v-3.3c0-0.276-0.225-0.501-0.5-0.501
			H313.605z"/>
		<path class="st1" d="M327.402,285.298h-3.3c-0.965,0-1.75-0.785-1.75-1.75v-3.3c0-0.965,0.785-1.751,1.75-1.751h3.3
			c0.965,0,1.75,0.786,1.75,1.751v3.3C329.152,284.513,328.367,285.298,327.402,285.298z M324.102,279.747
			c-0.276,0-0.5,0.225-0.5,0.501v3.3c0,0.276,0.225,0.5,0.5,0.5h3.3c0.276,0,0.5-0.225,0.5-0.5v-3.3c0-0.276-0.225-0.501-0.5-0.501
			H324.102z"/>
		<path class="st1" d="M337.897,285.298h-3.3c-0.965,0-1.751-0.785-1.751-1.75v-3.3c0-0.965,0.786-1.751,1.751-1.751h3.3
			c0.965,0,1.751,0.786,1.751,1.751v3.3C339.648,284.513,338.863,285.298,337.897,285.298z M334.598,279.747
			c-0.276,0-0.501,0.225-0.501,0.501v3.3c0,0.276,0.225,0.5,0.501,0.5h3.3c0.276,0,0.501-0.225,0.501-0.5v-3.3
			c0-0.276-0.225-0.501-0.501-0.501H334.598z"/>
		<g>
			<path class="st1" d="M354.229,290.181h-46.458c-1.378,0-2.5-1.162-2.5-2.59v-45.605c0-0.345,0.28-0.625,0.625-0.625h50.207
				c0.345,0,0.625,0.28,0.625,0.625v45.605C356.728,289.02,355.607,290.181,354.229,290.181z M306.521,242.611v44.98
				c0,0.739,0.561,1.34,1.25,1.34h46.458c0.689,0,1.25-0.601,1.25-1.34v-44.98H306.521z"/>
			<rect x="305.896" y="252.271" class="st1" width="49.856" height="1.25"/>
		</g>
		<g>
			<path class="st1" d="M317.99,244.893c-0.345,0-0.625-0.28-0.625-0.625v-6.582c0-0.345,0.28-0.625,0.625-0.625
				s0.625,0.28,0.625,0.625v6.582C318.615,244.613,318.335,244.893,317.99,244.893z"/>
			<path class="st1" d="M317.99,250.526c-1.786,0-3.239-1.453-3.239-3.239c0-1.786,1.453-3.239,3.239-3.239
				c1.786,0,3.239,1.453,3.239,3.239C321.229,249.073,319.775,250.526,317.99,250.526z M317.99,245.298
				c-1.097,0-1.989,0.893-1.989,1.989s0.893,1.989,1.989,1.989s1.989-0.892,1.989-1.989S319.086,245.298,317.99,245.298z"/>
		</g>
		<g>
			<path class="st1" d="M344.009,244.893c-0.345,0-0.625-0.28-0.625-0.625v-6.582c0-0.345,0.28-0.625,0.625-0.625
				s0.625,0.28,0.625,0.625v6.582C344.634,244.613,344.354,244.893,344.009,244.893z"/>
			<path class="st1" d="M344.009,250.526c-1.786,0-3.239-1.453-3.239-3.239c0-1.786,1.453-3.239,3.239-3.239
				c1.786,0,3.239,1.453,3.239,3.239C347.249,249.073,345.795,250.526,344.009,250.526z M344.009,245.298
				c-1.097,0-1.989,0.893-1.989,1.989s0.892,1.989,1.989,1.989s1.989-0.892,1.989-1.989S345.106,245.298,344.009,245.298z"/>
		</g>
		<g>
			<path class="st1" d="M328.71,276.043h-5.917c-0.858,0-1.556-0.698-1.556-1.556v-5.917c0-0.858,0.698-1.556,1.556-1.556h5.917
				c0.858,0,1.556,0.698,1.556,1.556v5.917C330.266,275.345,329.568,276.043,328.71,276.043z M322.793,268.264
				c-0.169,0-0.306,0.137-0.306,0.306v5.917c0,0.169,0.137,0.306,0.306,0.306h5.917c0.169,0,0.306-0.137,0.306-0.306v-5.917
				c0-0.169-0.137-0.306-0.306-0.306H322.793z"/>
			<path class="st1" d="M325.452,273.986c-0.16,0-0.315-0.062-0.432-0.173l-3.59-3.433c-0.25-0.238-0.258-0.634-0.02-0.884
				c0.238-0.25,0.634-0.259,0.884-0.02l3.062,2.929l4.872-6.991c0.198-0.283,0.588-0.353,0.87-0.155
				c0.283,0.197,0.353,0.587,0.155,0.87l-5.289,7.59c-0.104,0.15-0.269,0.246-0.451,0.265
				C325.494,273.985,325.473,273.986,325.452,273.986z"/>
		</g>
	</g>
	<rect x="287.198" y="55.029" class="st1" width="92.293" height="16.914"/>
	<rect x="121.621" y="55.029" class="st1" width="92.293" height="16.914"/>
	<rect x="444.299" y="55.029" class="st1" width="92.293" height="16.914"/>
	<rect x="601.964" y="55.029" class="st1" width="92.293" height="16.914"/>
	<g>
		<path class="st3" d="M290.881,66.665l0.912-1.067c0.672,0.624,1.379,1.007,2.159,1.007c1.008,0,1.667-0.576,1.667-1.451v-0.024
			c0-0.852-0.72-1.392-1.739-1.392c-0.6,0-1.115,0.168-1.547,0.372l-0.888-0.588l0.24-4.114h5.025v1.308h-3.754l-0.132,1.967
			c0.396-0.144,0.768-0.24,1.331-0.24c1.631,0,2.926,0.863,2.926,2.638v0.024c0,1.715-1.259,2.843-3.118,2.843
			C292.68,67.948,291.673,67.432,290.881,66.665z"/>
		<path class="st3" d="M298.417,63.63v-0.024c0-2.398,1.463-4.342,3.67-4.342c2.195,0,3.646,1.919,3.646,4.318v0.024
			c0,2.399-1.463,4.342-3.67,4.342C299.856,67.948,298.417,66.029,298.417,63.63z M304.21,63.63v-0.024
			c0-1.655-0.852-3.01-2.147-3.01s-2.123,1.319-2.123,2.986v0.024c0,1.655,0.84,3.01,2.147,3.01S304.21,65.273,304.21,63.63z"/>
		<path class="st3" d="M306.937,61.483v-0.024c0-1.175,0.804-2.146,1.991-2.146s1.967,0.971,1.967,2.123v0.024
			c0,1.164-0.791,2.147-1.99,2.147C307.729,63.606,306.937,62.635,306.937,61.483z M313.929,59.408h1.188l-3.31,4.474l-2.831,3.922
			h-1.188l3.299-4.461L313.929,59.408z M308.005,61.435v0.024c0,0.684,0.384,1.224,0.923,1.224c0.563,0,0.899-0.552,0.899-1.199
			v-0.024c0-0.671-0.384-1.223-0.923-1.223C308.34,60.236,308.005,60.788,308.005,61.435z M312.01,65.777v-0.024
			c0-1.175,0.804-2.147,1.991-2.147c1.176,0,1.967,0.972,1.967,2.123v0.024c0,1.163-0.804,2.147-1.99,2.147
			C312.802,67.9,312.01,66.928,312.01,65.777z M314.901,65.777v-0.024c0-0.672-0.384-1.224-0.923-1.224c-0.564,0-0.9,0.552-0.9,1.2
			v0.024c0,0.684,0.385,1.223,0.924,1.223C314.565,66.976,314.901,66.424,314.901,65.777z"/>
		<path class="st3" d="M317.162,63.438h4.989v1.379h-4.989V63.438z"/>
		<path class="st3" d="M327.802,60.704h-4.222v-1.295h5.901v1.116l-3.778,7.28h-1.667L327.802,60.704z"/>
		<path class="st3" d="M330.577,66.665l0.912-1.067c0.671,0.624,1.379,1.007,2.158,1.007c1.008,0,1.667-0.576,1.667-1.451v-0.024
			c0-0.852-0.72-1.392-1.738-1.392c-0.601,0-1.116,0.168-1.548,0.372l-0.888-0.588l0.24-4.114h5.025v1.308h-3.754l-0.132,1.967
			c0.396-0.144,0.768-0.24,1.331-0.24c1.631,0,2.927,0.863,2.927,2.638v0.024c0,1.715-1.26,2.843-3.118,2.843
			C332.375,67.948,331.369,67.432,330.577,66.665z"/>
		<path class="st3" d="M338.003,61.483v-0.024c0-1.175,0.804-2.146,1.991-2.146s1.967,0.971,1.967,2.123v0.024
			c0,1.164-0.791,2.147-1.99,2.147C338.795,63.606,338.003,62.635,338.003,61.483z M344.996,59.408h1.188l-3.31,4.474l-2.831,3.922
			h-1.188l3.299-4.461L344.996,59.408z M339.072,61.435v0.024c0,0.684,0.384,1.224,0.923,1.224c0.563,0,0.899-0.552,0.899-1.199
			v-0.024c0-0.671-0.384-1.223-0.923-1.223C339.407,60.236,339.072,60.788,339.072,61.435z M343.077,65.777v-0.024
			c0-1.175,0.804-2.147,1.991-2.147c1.176,0,1.967,0.972,1.967,2.123v0.024c0,1.163-0.804,2.147-1.99,2.147
			C343.869,67.9,343.077,66.928,343.077,65.777z M345.967,65.777v-0.024c0-0.672-0.384-1.224-0.923-1.224
			c-0.564,0-0.9,0.552-0.9,1.2v0.024c0,0.684,0.385,1.223,0.924,1.223C345.631,66.976,345.967,66.424,345.967,65.777z"/>
		<path class="st3" d="M351.803,63.63v-0.024c0-2.363,1.822-4.342,4.401-4.342c2.578,0,4.377,1.955,4.377,4.318v0.024
			c0,2.363-1.822,4.342-4.401,4.342C353.602,67.948,351.803,65.993,351.803,63.63z M359.035,63.63v-0.024
			c0-1.631-1.188-2.986-2.854-2.986s-2.83,1.331-2.83,2.962v0.024c0,1.631,1.188,2.975,2.854,2.975S359.035,65.261,359.035,63.63z"
			/>
		<path class="st3" d="M362.315,59.408h6.225v1.319h-4.749v2.183H368v1.319h-4.21v2.255h4.81v1.319h-6.285V59.408z"/>
		<path class="st3" d="M370.295,59.408h6.225v1.319h-4.749v2.183h4.21v1.319h-4.21v2.255h4.81v1.319h-6.285V59.408z"/>
	</g>
	<g>
		<g>
			<path class="st3" d="M134.19,64.229v-1.295l5.733-2.651v1.379l-4.294,1.907l4.294,1.919v1.392L134.19,64.229z"/>
			<path class="st3" d="M141.498,66.665l0.912-1.067c0.672,0.624,1.379,1.007,2.159,1.007c1.008,0,1.667-0.576,1.667-1.451v-0.024
				c0-0.852-0.72-1.392-1.739-1.392c-0.6,0-1.115,0.168-1.547,0.372l-0.888-0.588l0.24-4.114h5.025v1.308h-3.754l-0.132,1.967
				c0.396-0.144,0.768-0.24,1.331-0.24c1.631,0,2.926,0.863,2.926,2.638v0.024c0,1.715-1.259,2.843-3.118,2.843
				C143.297,67.948,142.29,67.432,141.498,66.665z"/>
			<path class="st3" d="M149.033,63.63v-0.024c0-2.398,1.463-4.342,3.67-4.342c2.195,0,3.646,1.919,3.646,4.318v0.024
				c0,2.399-1.464,4.342-3.67,4.342C150.473,67.948,149.033,66.029,149.033,63.63z M154.826,63.63v-0.024
				c0-1.655-0.852-3.01-2.146-3.01c-1.296,0-2.123,1.319-2.123,2.986v0.024c0,1.655,0.839,3.01,2.146,3.01
				S154.826,65.273,154.826,63.63z"/>
			<path class="st3" d="M157.555,61.483v-0.024c0-1.175,0.803-2.146,1.99-2.146s1.967,0.971,1.967,2.123v0.024
				c0,1.164-0.791,2.147-1.99,2.147C158.346,63.606,157.555,62.635,157.555,61.483z M164.546,59.408h1.188l-3.31,4.474l-2.831,3.922
				h-1.188l3.299-4.461L164.546,59.408z M158.622,61.435v0.024c0,0.684,0.384,1.224,0.923,1.224c0.563,0,0.899-0.552,0.899-1.199
				v-0.024c0-0.671-0.384-1.223-0.923-1.223C158.957,60.236,158.622,60.788,158.622,61.435z M162.627,65.777v-0.024
				c0-1.175,0.804-2.147,1.991-2.147c1.176,0,1.967,0.972,1.967,2.123v0.024c0,1.163-0.804,2.147-1.99,2.147
				C163.419,67.9,162.627,66.928,162.627,65.777z M165.518,65.777v-0.024c0-0.672-0.384-1.224-0.923-1.224
				c-0.564,0-0.899,0.552-0.899,1.2v0.024c0,0.684,0.383,1.223,0.923,1.223C165.182,66.976,165.518,66.424,165.518,65.777z"/>
			<path class="st3" d="M171.354,63.63v-0.024c0-2.363,1.822-4.342,4.401-4.342c2.578,0,4.377,1.955,4.377,4.318v0.024
				c0,2.363-1.822,4.342-4.401,4.342C173.152,67.948,171.354,65.993,171.354,63.63z M178.585,63.63v-0.024
				c0-1.631-1.188-2.986-2.854-2.986s-2.83,1.331-2.83,2.962v0.024c0,1.631,1.188,2.975,2.854,2.975S178.585,65.261,178.585,63.63z"
				/>
			<path class="st3" d="M181.864,59.408h6.225v1.319h-4.749v2.183h4.21v1.319h-4.21v2.255h4.81v1.319h-6.285V59.408z"/>
			<path class="st3" d="M189.845,59.408h6.225v1.319h-4.749v2.183h4.21v1.319h-4.21v2.255h4.81v1.319h-6.285V59.408z"/>
			<path class="st3" d="M199.072,61.759l-1.2,0.875l-0.432-0.732l1.367-0.6l-1.367-0.6l0.432-0.731l1.2,0.875l-0.168-1.463h0.839
				l-0.168,1.463l1.2-0.875l0.432,0.731l-1.367,0.6l1.367,0.6l-0.432,0.732l-1.2-0.875l0.168,1.463h-0.839L199.072,61.759z"/>
		</g>
	</g>
	<g>
		<g>
			<path class="st3" d="M452.313,60.704h-4.222v-1.295h5.901v1.116l-3.778,7.28h-1.667L452.313,60.704z"/>
			<path class="st3" d="M455.088,66.665L456,65.597c0.672,0.624,1.379,1.007,2.158,1.007c1.008,0,1.668-0.576,1.668-1.451v-0.024
				c0-0.852-0.72-1.392-1.739-1.392c-0.6,0-1.115,0.168-1.547,0.372l-0.888-0.588l0.239-4.114h5.025v1.308h-3.754l-0.132,1.967
				c0.396-0.144,0.768-0.24,1.331-0.24c1.632,0,2.927,0.863,2.927,2.638v0.024c0,1.715-1.26,2.843-3.118,2.843
				C456.888,67.948,455.88,67.432,455.088,66.665z"/>
			<path class="st3" d="M462.516,61.483v-0.024c0-1.175,0.804-2.146,1.991-2.146s1.967,0.971,1.967,2.123v0.024
				c0,1.164-0.791,2.147-1.99,2.147C463.308,63.606,462.516,62.635,462.516,61.483z M469.508,59.408h1.188l-3.31,4.474l-2.831,3.922
				h-1.188l3.299-4.461L469.508,59.408z M463.584,61.435v0.024c0,0.684,0.384,1.224,0.923,1.224c0.563,0,0.899-0.552,0.899-1.199
				v-0.024c0-0.671-0.384-1.223-0.923-1.223C463.919,60.236,463.584,60.788,463.584,61.435z M467.589,65.777v-0.024
				c0-1.175,0.804-2.147,1.991-2.147c1.176,0,1.967,0.972,1.967,2.123v0.024c0,1.163-0.804,2.147-1.99,2.147
				C468.381,67.9,467.589,66.928,467.589,65.777z M470.479,65.777v-0.024c0-0.672-0.384-1.224-0.923-1.224
				c-0.564,0-0.9,0.552-0.9,1.2v0.024c0,0.684,0.385,1.223,0.924,1.223C470.144,66.976,470.479,66.424,470.479,65.777z"/>
			<path class="st3" d="M472.74,63.438h4.989v1.379h-4.989V63.438z"/>
			<path class="st3" d="M484.005,63.954c-0.468,0.564-1.115,0.9-1.979,0.9c-1.787,0-2.974-1.043-2.974-2.663v-0.024
				c0-1.643,1.271-2.903,3.13-2.903c1.056,0,1.739,0.3,2.339,0.888c0.611,0.624,1.007,1.547,1.007,3.202v0.024
				c0,2.699-1.331,4.57-3.598,4.57c-1.163,0-1.979-0.42-2.687-1.008l0.804-1.127c0.636,0.527,1.199,0.792,1.919,0.792
				C483.453,66.604,483.992,65.069,484.005,63.954z M483.944,62.107v-0.024c0-0.875-0.684-1.547-1.751-1.547
				c-1.043,0-1.667,0.696-1.667,1.559v0.024c0,0.875,0.672,1.5,1.715,1.5C483.309,63.618,483.944,62.922,483.944,62.107z"/>
			<path class="st3" d="M486.84,63.63v-0.024c0-2.398,1.463-4.342,3.67-4.342c2.195,0,3.646,1.919,3.646,4.318v0.024
				c0,2.399-1.464,4.342-3.67,4.342C488.279,67.948,486.84,66.029,486.84,63.63z M492.633,63.63v-0.024
				c0-1.655-0.852-3.01-2.146-3.01c-1.296,0-2.123,1.319-2.123,2.986v0.024c0,1.655,0.839,3.01,2.146,3.01
				S492.633,65.273,492.633,63.63z"/>
			<path class="st3" d="M495.359,61.483v-0.024c0-1.175,0.804-2.146,1.991-2.146s1.967,0.971,1.967,2.123v0.024
				c0,1.164-0.791,2.147-1.99,2.147C496.151,63.606,495.359,62.635,495.359,61.483z M502.352,59.408h1.188l-3.31,4.474l-2.831,3.922
				h-1.188l3.299-4.461L502.352,59.408z M496.428,61.435v0.024c0,0.684,0.384,1.224,0.923,1.224c0.563,0,0.899-0.552,0.899-1.199
				v-0.024c0-0.671-0.384-1.223-0.923-1.223C496.763,60.236,496.428,60.788,496.428,61.435z M500.433,65.777v-0.024
				c0-1.175,0.804-2.147,1.991-2.147c1.176,0,1.967,0.972,1.967,2.123v0.024c0,1.163-0.804,2.147-1.99,2.147
				C501.225,67.9,500.433,66.928,500.433,65.777z M503.323,65.777v-0.024c0-0.672-0.384-1.224-0.923-1.224
				c-0.564,0-0.9,0.552-0.9,1.2v0.024c0,0.684,0.385,1.223,0.924,1.223C502.987,66.976,503.323,66.424,503.323,65.777z"/>
			<path class="st3" d="M509.159,63.63v-0.024c0-2.363,1.822-4.342,4.401-4.342c2.578,0,4.377,1.955,4.377,4.318v0.024
				c0,2.363-1.822,4.342-4.401,4.342C510.958,67.948,509.159,65.993,509.159,63.63z M516.391,63.63v-0.024
				c0-1.631-1.188-2.986-2.854-2.986s-2.83,1.331-2.83,2.962v0.024c0,1.631,1.188,2.975,2.854,2.975S516.391,65.261,516.391,63.63z"
				/>
			<path class="st3" d="M519.671,59.408h6.225v1.319h-4.749v2.183h4.21v1.319h-4.21v2.255h4.81v1.319h-6.285V59.408z"/>
			<path class="st3" d="M527.651,59.408h6.225v1.319h-4.749v2.183h4.21v1.319h-4.21v2.255h4.81v1.319h-6.285V59.408z"/>
		</g>
	</g>
	<g>
		<g>
			<path class="st3" d="M618.636,65.501l4.281-1.907l-4.281-1.919v-1.392l5.732,2.651v1.295l-5.732,2.651V65.501z"/>
			<path class="st3" d="M630.765,63.954c-0.467,0.564-1.115,0.9-1.979,0.9c-1.787,0-2.975-1.043-2.975-2.663v-0.024
				c0-1.643,1.271-2.903,3.131-2.903c1.055,0,1.739,0.3,2.339,0.888c0.611,0.624,1.007,1.547,1.007,3.202v0.024
				c0,2.699-1.331,4.57-3.598,4.57c-1.163,0-1.979-0.42-2.687-1.008l0.804-1.127c0.636,0.527,1.199,0.792,1.919,0.792
				C630.214,66.604,630.753,65.069,630.765,63.954z M630.705,62.107v-0.024c0-0.875-0.684-1.547-1.751-1.547
				c-1.043,0-1.667,0.696-1.667,1.559v0.024c0,0.875,0.672,1.5,1.715,1.5C630.069,63.618,630.705,62.922,630.705,62.107z"/>
			<path class="st3" d="M633.6,63.63v-0.024c0-2.398,1.463-4.342,3.67-4.342c2.195,0,3.646,1.919,3.646,4.318v0.024
				c0,2.399-1.464,4.342-3.67,4.342C635.039,67.948,633.6,66.029,633.6,63.63z M639.393,63.63v-0.024c0-1.655-0.852-3.01-2.146-3.01
				c-1.296,0-2.123,1.319-2.123,2.986v0.024c0,1.655,0.839,3.01,2.146,3.01S639.393,65.273,639.393,63.63z"/>
			<path class="st3" d="M642.121,61.483v-0.024c0-1.175,0.803-2.146,1.99-2.146s1.967,0.971,1.967,2.123v0.024
				c0,1.164-0.791,2.147-1.99,2.147C642.912,63.606,642.121,62.635,642.121,61.483z M649.112,59.408h1.188l-3.31,4.474l-2.831,3.922
				h-1.188l3.299-4.461L649.112,59.408z M643.188,61.435v0.024c0,0.684,0.384,1.224,0.923,1.224c0.563,0,0.899-0.552,0.899-1.199
				v-0.024c0-0.671-0.384-1.223-0.923-1.223C643.523,60.236,643.188,60.788,643.188,61.435z M647.193,65.777v-0.024
				c0-1.175,0.804-2.147,1.991-2.147c1.176,0,1.967,0.972,1.967,2.123v0.024c0,1.163-0.804,2.147-1.99,2.147
				C647.985,67.9,647.193,66.928,647.193,65.777z M650.084,65.777v-0.024c0-0.672-0.384-1.224-0.923-1.224
				c-0.564,0-0.899,0.552-0.899,1.2v0.024c0,0.684,0.383,1.223,0.923,1.223C649.748,66.976,650.084,66.424,650.084,65.777z"/>
			<path class="st3" d="M655.92,63.63v-0.024c0-2.363,1.822-4.342,4.401-4.342c2.578,0,4.377,1.955,4.377,4.318v0.024
				c0,2.363-1.822,4.342-4.401,4.342C657.719,67.948,655.92,65.993,655.92,63.63z M663.151,63.63v-0.024
				c0-1.631-1.188-2.986-2.854-2.986s-2.83,1.331-2.83,2.962v0.024c0,1.631,1.188,2.975,2.854,2.975S663.151,65.261,663.151,63.63z"
				/>
			<path class="st3" d="M666.431,59.408h6.225v1.319h-4.749v2.183h4.21v1.319h-4.21v2.255h4.81v1.319h-6.285V59.408z"/>
			<path class="st3" d="M674.411,59.408h6.225v1.319h-4.749v2.183h4.21v1.319h-4.21v2.255h4.81v1.319h-6.285V59.408z"/>
		</g>
	</g>
	<g>
		<g>
			<rect x="489.076" y="209.38" class="st1" width="2.328" height="1.25"/>
			<path class="st1" d="M510.969,210.63h-4.076v-1.25h4.076V210.63z M504.447,210.63h-4.076v-1.25h4.076V210.63z M497.926,210.63
				h-4.076v-1.25h4.076V210.63z"/>
			<polygon class="st1" points="516.366,212.333 515.116,212.333 515.116,210.63 513.414,210.63 513.414,209.38 516.366,209.38 			
				"/>
			<path class="st1" d="M516.366,243.12h-1.25v-4.811h1.25V243.12z M516.366,235.423h-1.25v-4.811h1.25V235.423z M516.366,227.727
				h-1.25v-4.811h1.25V227.727z M516.366,220.03h-1.25v-4.811h1.25V220.03z"/>
			<polygon class="st1" points="516.366,248.959 513.414,248.959 513.414,247.709 515.116,247.709 515.116,246.006 516.366,246.006 
							"/>
			<path class="st1" d="M510.762,248.959h-4.421v-1.25h4.421V248.959z M503.688,248.959h-4.421v-1.25h4.421V248.959z
				 M496.615,248.959h-4.421v-1.25h4.421V248.959z"/>
			<rect x="487.214" y="247.709" class="st1" width="2.328" height="1.25"/>
		</g>
		<path class="st1" d="M476.898,216.531v9.73h-9.73v-9.73H476.898 M478.148,215.281h-12.23v12.23h12.23V215.281L478.148,215.281z"/>
		<path class="st1" d="M477.154,227.142c-0.16,0-0.32-0.061-0.442-0.183l-10.241-10.241c-0.243-0.244-0.243-0.64,0-0.884
			c0.244-0.244,0.641-0.244,0.885,0l10.241,10.241c0.243,0.244,0.243,0.64,0,0.884C477.475,227.081,477.314,227.142,477.154,227.142
			z"/>
		<path class="st1" d="M466.913,227.142c-0.16,0-0.32-0.061-0.442-0.183c-0.243-0.244-0.243-0.64,0-0.884l10.241-10.241
			c0.244-0.244,0.641-0.244,0.885,0c0.243,0.244,0.243,0.64,0,0.884l-10.241,10.241
			C467.233,227.081,467.073,227.142,466.913,227.142z"/>
		<path class="st1" d="M493.36,216.531v9.73h-9.73v-9.73H493.36 M494.61,215.281h-12.23v12.23h12.23V215.281L494.61,215.281z"/>
		<path class="st1" d="M493.615,227.142c-0.16,0-0.32-0.061-0.442-0.183l-10.241-10.241c-0.243-0.244-0.243-0.64,0-0.884
			c0.244-0.244,0.641-0.244,0.885,0l10.241,10.241c0.243,0.244,0.243,0.64,0,0.884C493.936,227.081,493.775,227.142,493.615,227.142
			z"/>
		<path class="st1" d="M483.374,227.142c-0.16,0-0.32-0.061-0.442-0.183c-0.243-0.244-0.243-0.64,0-0.884l10.241-10.241
			c0.244-0.244,0.641-0.244,0.885,0c0.243,0.244,0.243,0.64,0,0.884l-10.241,10.241
			C483.694,227.081,483.534,227.142,483.374,227.142z"/>
		<path class="st1" d="M509.821,216.531v9.73h-9.73v-9.73H509.821 M511.071,215.281h-12.23v12.23h12.23V215.281L511.071,215.281z"/>
		<path class="st1" d="M510.076,227.142c-0.16,0-0.32-0.061-0.442-0.183l-10.241-10.241c-0.243-0.244-0.243-0.64,0-0.884
			c0.244-0.244,0.641-0.244,0.885,0l10.241,10.241c0.243,0.244,0.243,0.64,0,0.884C510.396,227.081,510.236,227.142,510.076,227.142
			z"/>
		<path class="st1" d="M499.835,227.142c-0.16,0-0.32-0.061-0.442-0.183c-0.243-0.244-0.243-0.64,0-0.884l10.241-10.241
			c0.244-0.244,0.641-0.244,0.885,0c0.243,0.244,0.243,0.64,0,0.884l-10.241,10.241
			C500.155,227.081,499.995,227.142,499.835,227.142z"/>
		<g>
			<path class="st1" d="M484.866,245.871l13.979,13.979l-0.667,0.667c-0.643,0.643-1.498,0.997-2.408,0.997
				c-0.91,0-1.765-0.354-2.408-0.997l-11.572-11.572L484.866,245.871 M484.866,244.104l-4.843,4.843l12.455,12.455
				c0.909,0.909,2.1,1.364,3.292,1.364s2.383-0.455,3.292-1.364l1.551-1.551L484.866,244.104L484.866,244.104z"/>
			<path class="st1" d="M495.855,236.311c0.91,0,1.765,0.354,2.408,0.997l0.667,0.667l-13.979,13.979l-3.075-3.075l11.572-11.572
				C494.091,236.665,494.946,236.311,495.855,236.311 M495.855,235.061c-1.191,0-2.383,0.454-3.292,1.364l-12.455,12.455
				l4.843,4.843l15.747-15.747l-1.551-1.551C498.238,235.515,497.047,235.061,495.855,235.061L495.855,235.061z"/>
			<g>
				<path class="st1" d="M477.269,252.587c1.062,0,2.06,0.413,2.811,1.164c1.55,1.55,1.55,4.072,0,5.621
					c-0.751,0.751-1.749,1.164-2.811,1.164s-2.06-0.413-2.811-1.164c-0.751-0.751-1.164-1.749-1.164-2.811
					c0-1.062,0.413-2.06,1.164-2.811C475.209,253,476.207,252.587,477.269,252.587 M477.269,251.337c-1.337,0-2.674,0.51-3.695,1.53
					c-2.04,2.04-2.04,5.349,0,7.389c1.02,1.02,2.357,1.53,3.695,1.53c1.337,0,2.674-0.51,3.695-1.53c2.04-2.04,2.04-5.349,0-7.389
					C479.943,251.847,478.606,251.337,477.269,251.337L477.269,251.337z"/>
				
					<rect x="479.37" y="251.549" transform="matrix(0.7067 -0.7075 0.7075 0.7067 -37.1508 414.7291)" class="st1" width="4.572" height="1.251"/>
			</g>
			<g>
				<path class="st1" d="M477.031,237.136c1.062,0,2.06,0.413,2.811,1.164c0.751,0.751,1.164,1.749,1.164,2.811
					c0,1.062-0.413,2.06-1.164,2.811c-0.751,0.751-1.749,1.164-2.811,1.164s-2.06-0.413-2.811-1.164
					c-0.751-0.751-1.164-1.749-1.164-2.811c0-1.062,0.413-2.06,1.164-2.811S475.969,237.136,477.031,237.136 M477.031,235.886
					c-1.337,0-2.674,0.51-3.695,1.53c-2.04,2.04-2.04,5.349,0,7.389c1.02,1.02,2.357,1.53,3.695,1.53c1.337,0,2.674-0.51,3.695-1.53
					c2.04-2.04,2.04-5.349,0-7.389C479.705,236.397,478.368,235.886,477.031,235.886L477.031,235.886z"/>
				
					<rect x="480.793" y="243.213" transform="matrix(0.7072 -0.7071 0.7071 0.7072 -32.6024 412.28)" class="st1" width="1.251" height="4.572"/>
			</g>
		</g>
	</g>
	<g>
		<path class="st1" d="M651.392,218.948c-12.729,0-23.084-10.355-23.084-23.084s10.355-23.084,23.084-23.084
			s23.084,10.355,23.084,23.084S664.12,218.948,651.392,218.948z M651.392,174.03c-12.039,0-21.834,9.795-21.834,21.834
			s9.795,21.834,21.834,21.834s21.834-9.795,21.834-21.834S663.431,174.03,651.392,174.03z M651.392,211.986
			c-8.89,0-16.122-7.232-16.122-16.122s7.232-16.122,16.122-16.122s16.122,7.232,16.122,16.122S660.281,211.986,651.392,211.986z
			 M651.392,180.992c-8.2,0-14.872,6.671-14.872,14.872s6.672,14.872,14.872,14.872s14.872-6.671,14.872-14.872
			S659.592,180.992,651.392,180.992z"/>
		<rect x="651.115" y="204.069" class="st1" width="1.25" height="19.12"/>
		<rect x="651.115" y="167.791" class="st1" width="1.25" height="19.12"/>
		<rect x="624.041" y="194.865" class="st1" width="19.12" height="1.25"/>
		<rect x="660.319" y="194.865" class="st1" width="19.12" height="1.25"/>
	</g>
	<g>
		<path class="st3" d="M609.02,241.355h4.006c2.34,0,3.755,1.387,3.755,3.39v0.028c0,2.27-1.766,3.446-3.965,3.446h-1.639v2.941
			h-2.157V241.355z M612.886,246.299c1.078,0,1.709-0.644,1.709-1.484v-0.028c0-0.966-0.673-1.485-1.751-1.485h-1.667v2.998H612.886
			z"/>
		<path class="st3" d="M618.302,241.355h4.482c1.247,0,2.213,0.35,2.857,0.995c0.547,0.546,0.841,1.316,0.841,2.241v0.028
			c0,1.583-0.854,2.577-2.102,3.04l2.396,3.502h-2.521l-2.101-3.138h-1.695v3.138h-2.157V241.355z M622.645,246.117
			c1.05,0,1.652-0.56,1.652-1.387v-0.028c0-0.924-0.645-1.401-1.694-1.401h-2.144v2.815H622.645z"/>
		<path class="st3" d="M628.354,241.355h7.396v1.919h-5.253v1.989h4.622v1.919h-4.622v2.059h5.322v1.919h-7.466V241.355z"/>
		<path class="st3" d="M637.664,241.355h3.823c3.082,0,5.211,2.115,5.211,4.875v0.028c0,2.76-2.129,4.903-5.211,4.903h-3.823
			V241.355z M639.821,243.302v5.911h1.666c1.766,0,2.956-1.19,2.956-2.927v-0.028c0-1.737-1.19-2.956-2.956-2.956H639.821z"/>
		<path class="st3" d="M648.64,241.355h2.157v9.805h-2.157V241.355z"/>
		<path class="st3" d="M652.741,246.286v-0.028c0-2.787,2.102-5.071,5.112-5.071c1.85,0,2.956,0.617,3.866,1.513l-1.372,1.583
			c-0.757-0.686-1.527-1.106-2.508-1.106c-1.652,0-2.844,1.373-2.844,3.054v0.028c0,1.681,1.163,3.082,2.844,3.082
			c1.121,0,1.807-0.448,2.577-1.149l1.373,1.387c-1.009,1.079-2.129,1.751-4.021,1.751
			C654.885,251.328,652.741,249.101,652.741,246.286z"/>
		<path class="st3" d="M665.721,243.344h-2.983v-1.989h8.125v1.989h-2.984v7.816h-2.157V243.344z"/>
		<path class="st3" d="M672.537,241.355h2.157v9.805h-2.157V241.355z"/>
		<path class="st3" d="M676.233,241.355h2.382l2.563,6.906l2.563-6.906h2.325l-3.965,9.875h-1.904L676.233,241.355z"/>
		<path class="st3" d="M687.504,241.355h7.396v1.919h-5.253v1.989h4.623v1.919h-4.623v2.059h5.323v1.919h-7.466V241.355z"/>
	</g>
	<g>
		<g>
			<path class="st1" d="M96.862,421.676l-1.133,0.804l-0.297-0.518l1.276-0.583l-1.276-0.594l0.297-0.506l1.133,0.792l-0.11-1.375
				h0.572l-0.11,1.375l1.133-0.792l0.297,0.506l-1.276,0.594l1.276,0.583l-0.297,0.518l-1.133-0.804l0.11,1.376h-0.572
				L96.862,421.676z"/>
			<path class="st1" d="M100.095,423.591v-0.022c0-2.123,1.595-3.982,3.938-3.982s3.917,1.837,3.917,3.961v0.021
				c0,2.123-1.595,3.982-3.938,3.982S100.095,425.714,100.095,423.591z M107.048,423.591v-0.022c0-1.749-1.276-3.18-3.037-3.18
				s-3.014,1.408-3.014,3.158v0.021c0,1.749,1.276,3.18,3.036,3.18S107.048,425.34,107.048,423.591z"/>
			<path class="st1" d="M109.072,419.718h0.968l2.74,6.634l2.75-6.634h0.935l-3.312,7.756h-0.77L109.072,419.718z"/>
			<path class="st1" d="M117.927,419.718h5.566v0.792h-4.697v2.63h4.202v0.792h-4.202v2.695h4.752v0.792h-5.622V419.718z"/>
			<path class="st1" d="M125.242,419.718h3.311c0.946,0,1.706,0.286,2.189,0.771c0.374,0.374,0.594,0.913,0.594,1.518v0.022
				c0,1.276-0.88,2.024-2.09,2.244l2.365,3.146h-1.067l-2.233-2.992h-2.2v2.992h-0.869V419.718z M128.476,423.646
				c1.155,0,1.98-0.594,1.98-1.584v-0.022c0-0.946-0.726-1.519-1.969-1.519h-2.376v3.125H128.476z"/>
			<path class="st1" d="M135.989,419.663h0.814l3.509,7.756h-0.935l-0.902-2.035h-4.191l-0.913,2.035h-0.891L135.989,419.663z
				 M138.135,424.592l-1.75-3.917l-1.76,3.917H138.135z"/>
			<path class="st1" d="M141.775,419.718h0.869v6.898h4.334v0.803h-5.204V419.718z"/>
			<path class="st1" d="M148.529,419.718h0.869v6.898h4.334v0.803h-5.204V419.718z"/>
			<path class="st1" d="M158.528,419.718h5.566v0.792h-4.697v2.63h4.203v0.792h-4.203v2.695h4.752v0.792h-5.622V419.718z"/>
			<path class="st1" d="M172.862,427.65l-1.023-0.913c-0.649,0.506-1.474,0.813-2.42,0.813c-2.343,0-3.917-1.837-3.917-3.96v-0.022
				c0-2.123,1.595-3.982,3.938-3.982s3.917,1.837,3.917,3.961v0.021c0,0.957-0.341,1.87-0.913,2.574l1.012,0.858L172.862,427.65z
				 M171.223,426.176l-1.441-1.232l0.583-0.648l1.441,1.309c0.418-0.55,0.649-1.243,0.649-2.013v-0.022
				c0-1.749-1.276-3.18-3.037-3.18s-3.014,1.408-3.014,3.158v0.021c0,1.749,1.276,3.18,3.036,3.18
				C170.123,426.748,170.739,426.539,171.223,426.176z"/>
			<path class="st1" d="M175.017,424.195v-4.478h0.869v4.423c0,1.661,0.891,2.597,2.354,2.597c1.419,0,2.321-0.858,2.321-2.542
				v-4.478h0.869v4.412c0,2.244-1.287,3.41-3.212,3.41C176.315,427.54,175.017,426.374,175.017,424.195z"/>
			<path class="st1" d="M183.508,419.718h0.869v7.701h-0.869V419.718z"/>
			<path class="st1" d="M186.578,419.718h2.882c1.738,0,2.882,0.924,2.882,2.442v0.022c0,1.661-1.386,2.519-3.025,2.519h-1.87v2.718
				h-0.869V419.718z M189.35,423.909c1.276,0,2.112-0.682,2.112-1.694v-0.021c0-1.101-0.825-1.673-2.068-1.673h-1.947v3.389H189.35z
				"/>
			<path class="st1" d="M193.871,419.718h0.88l2.806,4.203l2.805-4.203h0.88v7.701h-0.869v-6.238l-2.806,4.126h-0.044l-2.805-4.114
				v6.227h-0.847V419.718z"/>
			<path class="st1" d="M203.363,419.718h5.566v0.792h-4.697v2.63h4.202v0.792h-4.202v2.695h4.752v0.792h-5.622V419.718z"/>
			<path class="st1" d="M210.679,419.718h0.814l4.852,6.172v-6.172h0.847v7.701h-0.693l-4.973-6.314v6.314h-0.847V419.718z"/>
			<path class="st1" d="M221.349,420.521h-2.585v-0.803h6.051v0.803h-2.585v6.898h-0.88V420.521z"/>
			<path class="st1" d="M229.631,419.718h5.566v0.792H230.5v2.63h4.203v0.792H230.5v2.695h4.752v0.792h-5.622V419.718z"/>
			<path class="st1" d="M236.946,419.718h5.534v0.803h-4.665v2.751h4.169v0.792h-4.169v3.355h-0.869V419.718z"/>
			<path class="st1" d="M244.107,419.718h5.534v0.803h-4.665v2.751h4.169v0.792h-4.169v3.355h-0.869V419.718z"/>
			<path class="st1" d="M251.268,419.718h5.566v0.792h-4.697v2.63h4.203v0.792h-4.203v2.695h4.752v0.792h-5.622V419.718z"/>
			<path class="st1" d="M258.242,423.591v-0.022c0-2.179,1.628-3.982,3.895-3.982c1.397,0,2.233,0.495,3.003,1.221l-0.594,0.639
				c-0.649-0.616-1.375-1.057-2.42-1.057c-1.706,0-2.981,1.387-2.981,3.158v0.021c0,1.782,1.287,3.18,2.981,3.18
				c1.056,0,1.749-0.407,2.486-1.111l0.572,0.562c-0.803,0.813-1.683,1.353-3.08,1.353
				C259.881,427.551,258.242,425.802,258.242,423.591z"/>
			<path class="st1" d="M268.681,420.521h-2.585v-0.803h6.051v0.803h-2.585v6.898h-0.88V420.521z"/>
			<path class="st1" d="M273.795,419.718h0.869v7.701h-0.869V419.718z"/>
			<path class="st1" d="M276.204,419.718h0.968l2.74,6.634l2.75-6.634h0.935l-3.312,7.756h-0.77L276.204,419.718z"/>
			<path class="st1" d="M285.06,419.718h5.566v0.792h-4.697v2.63h4.202v0.792h-4.202v2.695h4.752v0.792h-5.622V419.718z"/>
			<path class="st1" d="M292.375,419.718h0.814l4.852,6.172v-6.172h0.847v7.701h-0.693l-4.973-6.314v6.314h-0.847V419.718z"/>
			<path class="st1" d="M301.009,419.718h5.566v0.792h-4.697v2.63h4.203v0.792h-4.203v2.695h4.752v0.792h-5.622V419.718z"/>
			<path class="st1" d="M307.818,426.297l0.539-0.639c0.803,0.727,1.573,1.09,2.641,1.09c1.034,0,1.716-0.55,1.716-1.31v-0.021
				c0-0.716-0.385-1.122-2.002-1.464c-1.771-0.385-2.585-0.957-2.585-2.222v-0.022c0-1.21,1.067-2.102,2.53-2.102
				c1.122,0,1.925,0.319,2.707,0.946l-0.506,0.671c-0.715-0.583-1.43-0.836-2.222-0.836c-1.001,0-1.639,0.551-1.639,1.243v0.022
				c0,0.726,0.396,1.133,2.09,1.496c1.716,0.374,2.508,1.001,2.508,2.179v0.021c0,1.32-1.1,2.179-2.629,2.179
				C309.744,427.529,308.743,427.122,307.818,426.297z"/>
			<path class="st1" d="M314.803,426.297l0.539-0.639c0.803,0.727,1.573,1.09,2.641,1.09c1.034,0,1.716-0.55,1.716-1.31v-0.021
				c0-0.716-0.385-1.122-2.002-1.464c-1.771-0.385-2.585-0.957-2.585-2.222v-0.022c0-1.21,1.067-2.102,2.53-2.102
				c1.122,0,1.925,0.319,2.707,0.946l-0.506,0.671c-0.715-0.583-1.43-0.836-2.222-0.836c-1.001,0-1.639,0.551-1.639,1.243v0.022
				c0,0.726,0.396,1.133,2.09,1.496c1.716,0.374,2.508,1.001,2.508,2.179v0.021c0,1.32-1.1,2.179-2.629,2.179
				C316.729,427.529,315.728,427.122,314.803,426.297z"/>
		</g>
	</g>
	<g>
		<g>
			<g>
				<polygon class="st2" points="57.797,101.678 75.522,70.983 93.246,101.678 				"/>
			</g>
		</g>
	</g>
</g>
<g id="Layer_4">
	<g>
		<linearGradient id="SVGID_2_" gradientUnits="userSpaceOnUse" x1="88.8394" y1="212.9202" x2="732.8885" y2="212.9202">
			<stop  offset="0" style="stop-color:#17C9C0"/>
			<stop  offset="0.1678" style="stop-color:#00A9D7"/>
			<stop  offset="0.5644" style="stop-color:#1CD0BB"/>
			<stop  offset="1" style="stop-color:#0FBEC8"/>
		</linearGradient>
		<path class="st4" d="M88.839,214.525v-3.2c1.371,0,2.748-0.003,4.133-0.01l0.016,3.2
			C91.598,214.522,90.215,214.525,88.839,214.525z"/>
		<linearGradient id="SVGID_3_" gradientUnits="userSpaceOnUse" x1="88.861" y1="152.6733" x2="731.2386" y2="152.6733">
			<stop  offset="0" style="stop-color:#17C9C0"/>
			<stop  offset="0.1678" style="stop-color:#00A9D7"/>
			<stop  offset="0.5644" style="stop-color:#1CD0BB"/>
			<stop  offset="1" style="stop-color:#0FBEC8"/>
		</linearGradient>
		<path class="st5" d="M97.025,214.485l-0.031-3.2c2.726-0.027,5.479-0.066,8.257-0.12l0.062,3.199
			C102.523,214.417,99.761,214.458,97.025,214.485z M109.351,214.279l-0.075-3.199c2.729-0.064,5.481-0.14,8.256-0.228l0.101,3.198
			C114.849,214.138,112.087,214.215,109.351,214.279z M121.669,213.915l-0.113-3.198c2.73-0.097,5.482-0.206,8.253-0.326
			l0.139,3.197C127.167,213.708,124.408,213.817,121.669,213.915z M133.982,213.406l-0.149-3.196
			c2.731-0.128,5.482-0.266,8.251-0.416l0.172,3.195C139.479,213.139,136.721,213.278,133.982,213.406z M146.287,212.767
			l-0.182-3.195c2.731-0.156,5.481-0.322,8.247-0.497l0.203,3.193C151.781,212.445,149.025,212.611,146.287,212.767z
			 M158.583,212.007l-0.213-3.193c2.732-0.182,5.479-0.373,8.243-0.573l0.231,3.191
			C164.075,211.633,161.321,211.824,158.583,212.007z M170.871,211.135l-0.24-3.191c2.732-0.206,5.478-0.421,8.238-0.645
			l0.259,3.189C176.361,210.713,173.608,210.928,170.871,211.135z M183.149,210.158l-0.267-3.188
			c2.731-0.229,5.476-0.465,8.233-0.711l0.283,3.188C188.637,209.691,185.887,209.929,183.149,210.158z M195.419,209.083
			l-0.291-3.187c2.73-0.25,5.474-0.507,8.228-0.773l0.308,3.186C200.903,208.575,198.155,208.833,195.419,209.083z M207.68,207.917
			l-0.314-3.185c2.73-0.27,5.472-0.547,8.222-0.832l0.33,3.183C213.161,207.369,210.415,207.646,207.68,207.917z M219.931,206.664
			l-0.337-3.183c2.729-0.289,5.469-0.585,8.217-0.888l0.352,3.181C225.41,206.078,222.666,206.374,219.931,206.664z
			 M232.173,205.326l-0.357-3.18c2.729-0.307,5.466-0.621,8.211-0.942l0.372,3.179C237.648,204.705,234.906,205.019,232.173,205.326
			z M244.406,203.911l-0.378-3.178c2.728-0.324,5.462-0.655,8.206-0.993l0.391,3.176
			C249.877,203.254,247.138,203.585,244.406,203.911z M256.629,202.42l-0.397-3.176c2.727-0.341,5.46-0.688,8.2-1.042l0.409,3.174
			C262.097,201.73,259.359,202.078,256.629,202.42z M268.843,200.856l-0.416-3.173c2.726-0.357,5.457-0.72,8.194-1.089l0.428,3.171
			C274.308,200.135,271.572,200.499,268.843,200.856z M281.047,199.223l-0.434-3.171c2.724-0.372,5.454-0.75,8.188-1.135
			l0.445,3.169C286.508,198.471,283.775,198.85,281.047,199.223z M293.241,197.521l-0.451-3.168c2.723-0.388,5.45-0.781,8.182-1.179
			l0.462,3.166C298.698,196.739,295.968,197.133,293.241,197.521z M305.427,195.753l-0.468-3.166
			c2.721-0.402,5.446-0.809,8.175-1.223l0.479,3.164C310.881,194.942,308.152,195.351,305.427,195.753z M317.602,193.922
			l-0.484-3.163c2.72-0.416,5.443-0.838,8.169-1.265l0.495,3.161C323.052,193.083,320.325,193.505,317.602,193.922z
			 M329.751,192.031l-0.5-3.161c2.71-0.429,5.422-0.862,8.137-1.302l0.511,3.159C335.182,191.167,332.465,191.601,329.751,192.031z
			 M341.871,190.082l-0.517-3.158c2.711-0.443,5.425-0.891,8.139-1.343l0.526,3.156
			C347.302,189.189,344.585,189.638,341.871,190.082z M353.993,188.071l-0.531-3.155c2.712-0.457,5.426-0.918,8.141-1.385
			l0.542,3.153C359.426,187.151,356.709,187.614,353.993,188.071z M366.117,185.999l-0.547-3.153
			c2.714-0.47,5.428-0.945,8.143-1.425l0.557,3.151C371.552,185.051,368.834,185.527,366.117,185.999z M378.244,183.866l-0.562-3.15
			c2.715-0.484,5.43-0.973,8.144-1.466l0.572,3.148C383.681,182.893,380.963,183.381,378.244,183.866z M390.375,181.672
			l-0.577-3.147c2.716-0.498,5.431-1,8.145-1.506l0.587,3.146C395.812,180.671,393.094,181.174,390.375,181.672z M402.507,179.419
			l-0.592-3.145c2.717-0.512,5.433-1.027,8.146-1.546l0.602,3.143C407.946,178.391,405.228,178.907,402.507,179.419z
			 M414.642,177.105l-0.607-3.142c2.719-0.525,5.435-1.054,8.147-1.587l0.617,3.14C420.082,176.05,417.362,176.58,414.642,177.105z
			 M426.757,174.736l-0.621-3.139c2.705-0.536,5.407-1.076,8.107-1.619l0.631,3.137C432.172,173.66,429.466,174.2,426.757,174.736z
			 M438.828,172.316l-0.637-3.136c2.703-0.549,5.403-1.101,8.1-1.657l0.646,3.134C444.237,171.214,441.535,171.767,438.828,172.316z
			 M450.888,169.838l-0.652-3.133c2.702-0.562,5.399-1.127,8.092-1.697l0.662,3.131
			C456.293,168.709,453.592,169.275,450.888,169.838z M462.935,167.302l-0.666-3.13c2.699-0.575,5.394-1.153,8.082-1.736
			l0.678,3.128C468.336,166.147,465.638,166.727,462.935,167.302z M474.97,164.708l-0.682-3.127c2.697-0.588,5.389-1.18,8.074-1.775
			l0.691,3.124C480.366,163.526,477.671,164.119,474.97,164.708z M486.992,162.054l-0.697-3.123
			c2.694-0.602,5.383-1.207,8.064-1.816l0.709,3.121C492.383,160.845,489.69,161.451,486.992,162.054z M499.001,159.34l-0.713-3.119
			c2.692-0.616,5.377-1.235,8.056-1.857l0.725,3.117C504.386,158.104,501.697,158.723,499.001,159.34z M510.998,156.564l-0.73-3.115
			c2.69-0.63,5.372-1.263,8.045-1.899l0.74,3.113C516.376,155.3,513.69,155.934,510.998,156.564z M522.979,153.726l-0.746-3.112
			c2.688-0.645,5.366-1.292,8.034-1.942l0.758,3.109C528.353,152.432,525.67,153.081,522.979,153.726z M534.943,150.822
			l-0.764-3.107c2.685-0.659,5.359-1.321,8.023-1.986l0.775,3.104C540.311,149.499,537.632,150.162,534.943,150.822z
			 M546.894,147.852l-0.781-3.104c2.682-0.675,5.353-1.352,8.012-2.032l0.793,3.101
			C552.254,146.498,549.579,147.176,546.894,147.852z M558.825,144.813l-0.799-3.099c2.679-0.69,5.346-1.384,8-2.08l0.811,3.096
			C564.179,143.428,561.508,144.122,558.825,144.813z M570.74,141.703l-0.818-3.094c2.676-0.708,5.338-1.417,7.985-2.129l0.832,3.09
			C576.086,140.284,573.42,140.995,570.74,141.703z M582.636,138.519l-0.838-3.089c2.673-0.724,5.33-1.451,7.973-2.181l0.852,3.084
			C587.976,137.064,585.312,137.792,582.636,138.519z M594.511,135.255l-0.857-3.083c2.668-0.743,5.321-1.488,7.956-2.235
			l0.873,3.078C599.843,133.764,597.185,134.511,594.511,135.255z M606.364,131.909l-0.881-3.076
			c2.665-0.763,5.312-1.527,7.939-2.293l0.896,3.072C611.686,130.379,609.033,131.146,606.364,131.909z M618.193,128.477
			l-0.904-3.069c2.659-0.783,5.301-1.568,7.921-2.354l0.92,3.064C623.504,126.906,620.858,127.693,618.193,128.477z
			 M629.995,124.952l-0.928-3.062c2.655-0.805,5.289-1.611,7.901-2.42l0.946,3.057C635.296,123.337,632.656,124.146,629.995,124.952
			z M641.77,121.327l-0.955-3.054c2.649-0.829,5.275-1.659,7.878-2.491l0.975,3.048C647.059,119.665,644.425,120.497,641.77,121.327
			z M653.512,117.596l-0.984-3.045c2.645-0.854,5.262-1.71,7.854-2.567l1.004,3.038
			C658.787,115.881,656.162,116.739,653.512,117.596z M665.217,113.748l-1.016-3.035c2.637-0.882,5.245-1.765,7.824-2.65
			l1.039,3.026C670.478,111.977,667.861,112.863,665.217,113.748z M676.881,109.772l-1.049-3.022
			c2.629-0.913,5.227-1.827,7.791-2.743l1.076,3.014C682.125,107.939,679.52,108.856,676.881,109.772z M688.5,105.656l-1.088-3.01
			c2.62-0.947,5.205-1.896,7.753-2.845l1.117,2.999C693.725,103.753,691.13,104.705,688.5,105.656z M700.064,101.38l-1.131-2.993
			c2.608-0.986,5.177-1.973,7.705-2.96l1.164,2.98C705.265,99.399,702.685,100.39,700.064,101.38z M711.562,96.928l-1.182-2.975
			c2.597-1.03,5.146-2.061,7.65-3.091l1.217,2.959C716.732,94.856,714.171,95.892,711.562,96.928z"/>
		<linearGradient id="SVGID_4_" gradientUnits="userSpaceOnUse" x1="88.9891" y1="90.0803" x2="732.9134" y2="90.0803">
			<stop  offset="0" style="stop-color:#17C9C0"/>
			<stop  offset="0.1678" style="stop-color:#00A9D7"/>
			<stop  offset="0.5644" style="stop-color:#1CD0BB"/>
			<stop  offset="1" style="stop-color:#0FBEC8"/>
		</linearGradient>
		<path class="st6" d="M722.76,92.361l-1.236-2.951c1.28-0.537,2.547-1.073,3.802-1.61l1.258,2.942
			C725.322,91.282,724.048,91.821,722.76,92.361z"/>
		<g>
			<linearGradient id="SVGID_5_" gradientUnits="userSpaceOnUse" x1="88.8395" y1="89.7779" x2="732.9155" y2="89.7779">
				<stop  offset="0" style="stop-color:#17C9C0"/>
				<stop  offset="0.1678" style="stop-color:#00A9D7"/>
				<stop  offset="0.5644" style="stop-color:#1CD0BB"/>
				<stop  offset="1" style="stop-color:#0FBEC8"/>
			</linearGradient>
			<polygon class="st7" points="726.523,94.18 732.267,86.522 722.763,85.376 			"/>
		</g>
	</g>
</g>
</svg>
